<svg width="570" height="512" viewBox="0 0 570 512" fill="none" xmlns="http://www.w3.org/2000/svg">
<path d="M264.232 49.7262C264.552 49.6522 264.313 50.1329 264.313 50.1329C263.526 50.5021 249.667 55.2111 249.704 61.1631C249.717 63.2726 249.743 64.5953 251.647 66.1876C255.093 69.0693 261.189 68.3589 268.122 68.8284C275.977 69.3605 281.646 67.6195 289.376 68.3104C295.485 68.8563 300.589 68.5177 303.675 71.0981C306.047 73.0816 307.327 74.6902 305.832 77.4342C303.835 81.0988 299.198 83.1953 292.786 85.5042C287.983 87.2339 284.011 88.069 278.816 88.9562C252.074 93.5235 243.365 77.6372 216.849 83.4606C206.217 85.7955 198.154 86.7129 191.098 92.1868C185.155 96.7976 184.195 99.8248 185.491 104.366C186.89 109.268 193.441 110.184 199.717 113.308C207.644 117.254 216.028 117.243 222.742 121.797C226.611 124.421 229.66 125.807 230.487 129.416C231.059 131.91 230.417 133.521 229.185 136.226C226.486 142.155 213.193 151.877 213.193 151.877L211.578 150.788C211.578 150.788 224.252 142.281 227.007 136.444C228.203 133.911 228.911 132.391 228.394 130.053C227.605 126.489 224.167 125.276 220.263 122.73C213.447 118.285 205.417 118.13 197.665 114.155C191.272 110.878 184.692 109.83 183.315 104.751C182.057 100.112 183.607 96.4513 189.629 91.7485C196.666 86.2537 205.955 84.7105 217.493 82.24C244.047 76.5544 252.766 92.7258 279.46 87.7357C284.487 86.7959 287.604 86.4972 292.191 84.7501C297.744 82.6349 301.979 80.8738 303.654 77.6519C304.84 75.3715 304.251 74.0052 302.571 72.2439C299.793 69.3308 294.522 69.3752 288.101 68.7582C281.084 68.084 275.899 69.7461 268.638 69.3894C261.159 69.022 254.545 69.8845 250.839 66.8307C248.747 65.1068 248.783 63.6413 248.85 61.3342C249.025 55.326 261.83 50.6301 264.232 49.7262Z" fill="#9E9E9E"/>
<path d="M264.232 49.7262C263.921 49.8208 264.313 50.1329 264.313 50.1329C264.313 50.1329 288.344 40.8661 299.555 43.7234C303.528 44.7361 306.011 45.3825 308.105 47.416C311.897 51.0963 307.647 54.8429 305.223 59.7117C302.477 65.2283 296.487 68.1981 294.101 73.7065C292.214 78.0598 289.139 81.3184 292.534 84.614C295.144 87.1473 297.567 88.7707 303.457 89.0745C311.323 89.4803 317.492 87.3706 324.907 84.1734C330.463 81.7782 333.935 79.5139 338.088 76.4553C359.468 60.7102 333.657 47.3154 357.3 32.3188C366.779 26.3061 372.358 21.3399 386.052 19.2172C397.587 17.4291 403.756 18.2266 411.704 21.2562C420.283 24.526 418.885 29.3513 421.781 35.0425C425.44 42.2323 421.42 47.8445 426.805 54.5105C429.908 58.3512 431.068 61.054 437.48 63.3257C441.911 64.8956 445.258 65.232 450.949 65.694C463.422 66.7066 488.107 62.4262 488.107 62.4262L486.822 60.8254C486.822 60.8254 464.725 65.2696 452.399 64.3383C447.05 63.9342 443.845 63.6853 439.682 62.2262C433.335 60.0016 432.687 57.1209 429.748 53.2934C424.617 46.6114 428.156 41.1566 424.359 34.071C421.228 28.2283 422.393 23.3206 413.468 19.9806C405.318 16.9308 397.673 16.2268 385.926 18.0245C372.202 20.1249 364.857 25.6142 354.69 32.1696C331.289 47.2567 357.633 60.7943 335.478 76.3061C331.306 79.2272 329.254 81.1738 323.769 83.4157C317.128 86.13 311.785 88.1298 304.907 87.7189C300.04 87.428 297.743 86.3835 295.222 84.4199C291.053 81.1722 293.653 77.6616 295.554 73.0651C297.632 68.0429 303.242 65.3594 306.035 60.3248C308.912 55.1383 313.696 51.1174 309.704 47.1807C307.451 44.9585 304.669 44.2851 300.285 43.2324C288.867 40.4907 266.261 49.1083 264.232 49.7262Z" fill="#9E9E9E"/>
<path d="M485.555 74.9701C485.555 74.9701 491.258 77.4667 492.34 86.287C492.63 88.8805 491.346 90.7963 489.508 92.618C487.628 94.5579 484.843 94.5645 483.16 96.5493C484.323 94.6702 483.983 92.4335 485.972 90.934C483.003 91.8906 481.471 94.1977 481.074 97.2108C480.719 100.106 479.436 102.021 476.245 102.336C477.871 101.026 477.321 99.221 477.249 97.4289C477.074 99.5328 475.457 100.525 473.616 100.954C471.373 101.532 470.402 102.143 468.686 103.848C469.563 100.768 468.055 99.0978 471.793 97.6441C473.842 96.8623 476.108 95.4099 474.464 92.8605C473.909 97.3415 470.167 95.9306 467.147 97.3235C465.011 98.3417 465.445 100.024 464.249 101.624C463.054 103.224 460.978 103.487 459.108 103.478C462.234 102.605 461.451 99.084 462.193 96.5971C463.024 93.7147 466.821 93.0582 468.4 90.4739C466.988 88.1693 465.603 90.9576 465.021 91.8972C464.068 93.3442 462.838 94.7442 460.789 93.9744C465.604 92.4296 462.335 86.6153 465.816 84.3194C467.152 83.4394 470.538 84.8011 471.216 83.2276C472.273 80.8285 468.103 82.0719 467.212 82.6851C467.445 81.3784 468.473 80.0925 469.762 79.4897C471.414 78.6975 472.579 79.7624 474.019 79.4818C475.938 79.1342 476.12 76.7122 473.973 76.656C473.178 76.6352 471.512 77.984 470.549 78.277C471.727 75.8413 474.611 73.5697 477.252 73.0023C480.533 72.2925 482.801 73.7841 485.555 74.9701Z" fill="url(#paint0_linear)"/>
<path d="M487.144 78.0527C487.717 78.697 487.676 78.7352 488.203 79.5724C489.329 81.3248 489.552 83.8606 487.866 85.3125C486.903 86.1145 485.771 85.8898 484.741 86.4591C483.652 87.047 483.601 88.2455 483.021 89.1676C482.971 88.5096 482.974 87.9875 482.826 87.3477C482.765 86.9603 482.667 86.5338 482.817 86.1679C482.401 86.8597 482.329 87.6712 481.874 88.3626C481.297 89.2074 480.434 89.469 479.493 89.7685C478.533 90.0484 477.599 90.1545 476.554 90.1435C476.129 90.1389 475.572 90.0363 475.178 90.1869C474.666 90.4135 474.471 90.8949 474.07 91.2388C474.3 89.9068 474.386 89.2309 475.795 88.859C477.243 88.4876 477.315 87.2313 478.262 86.3324C477.447 86.8459 476.411 87.0864 475.856 86.0169C477.574 86.5765 478.286 85.3077 478.522 83.8211C478.775 82.3927 478.731 81.1352 479.895 80.1419C479.18 80.115 478.82 80.8654 478.376 81.2862C477.854 81.7448 477.265 81.9319 476.583 82.0601C476.663 81.9836 476.783 81.9075 476.824 81.8306C477.096 81.35 477.594 81.0265 477.865 80.5459C478.117 80.0844 478.271 79.6412 478.465 79.1598C478.854 78.197 479.857 77.3567 480.73 76.8245C482.181 75.9309 484.839 76.2298 486.566 77.5244L486.734 77.6616C486.884 77.7792 487.014 77.916 487.144 78.0527Z" fill="#FFC929"/>
<path d="M487.639 78.578C488.259 79.3149 488.348 79.9126 488.327 80.8761C488.293 81.9522 487.302 82.7118 486.6 83.4187C486.771 83.0957 486.726 82.7764 486.765 82.4185C486.387 82.8378 486.031 82.6731 485.606 82.9166C485.159 83.18 484.921 83.7267 484.505 84.0012C484.7 83.5353 484.177 83.0475 484.515 82.627C484.06 82.7978 484.222 83.3669 483.908 83.6445C483.636 83.8824 483.039 83.9873 482.738 84.1526C482.771 84.0407 483.565 82.9263 482.963 83.2362C482.849 83.3046 482.747 83.722 482.58 83.8605C482.434 83.9587 482.218 84.0239 482.042 84.0698C481.64 84.1704 481.232 84.0759 480.869 84.2598C480.454 84.4728 480.251 84.8667 480.037 85.2705C480.268 84.5287 480.125 84.0422 480.772 83.5491C481.085 83.2919 481.213 83.0701 481.435 82.7589C481.625 82.498 481.874 82.3825 482.125 82.1439C481.33 81.9351 481.178 82.8024 480.517 82.9874C480.893 82.6911 480.78 82.2568 480.901 81.8605C481.033 81.4747 481.359 81.1051 481.742 80.9424C482.021 80.8175 482.747 80.932 482.706 80.4691C482.666 79.9243 481.891 80.2186 481.661 80.3963C481.803 80.0006 482.13 79.6105 482.593 79.5117C482.995 79.4316 483.401 79.6491 483.595 79.1832C483.257 78.7011 482.775 79.1788 482.314 79.1545C482.972 78.6308 483.273 77.5014 484.305 77.7072C484.58 77.7669 485.243 78.4025 485.284 77.9217C485.313 77.5328 484.622 77.245 484.324 77.2872C485.327 76.9177 486.758 77.587 487.509 78.4407L487.639 78.578Z" fill="#F9F079"/>
<path d="M481.949 67.7431C481.118 69.1379 480.345 70.487 479.621 71.7806C478.897 73.0742 481.592 77.3605 484.374 80.286C487.135 83.1881 492.297 87.1975 493.627 86.5417C494.958 85.8859 496.344 85.1843 497.781 84.429L481.949 67.7431Z" fill="url(#paint1_linear)"/>
<path d="M522.72 70.215C539.674 59.349 556.669 44.9033 564.597 24.4326L545.366 4.16541C524.511 11.0103 509.19 27.2219 497.452 43.5852L486.181 60.7633C485.146 62.453 484.155 64.0853 483.192 65.6849L499.903 83.2961C501.549 82.4163 503.235 81.5135 504.974 80.5691L522.72 70.215ZM543.67 25.0344C545.854 27.4287 545.773 31.0985 543.454 33.299C541.137 35.4969 537.463 35.3911 535.187 33.083C533.001 30.6886 533.089 27.0146 535.405 24.8167C537.724 22.6162 541.392 22.7262 543.67 25.0344Z" fill="url(#paint2_linear)"/>
<path d="M506.676 85.2058L504.974 80.5697L522.72 70.2156C522.085 73.5887 521.07 86.9915 521.07 86.9915L500.891 103.864L497.183 99.955L506.676 85.2058Z" fill="url(#paint3_linear)"/>
<path d="M480.613 44.3541C480.613 44.3541 494.048 44.0409 497.451 43.5857L486.181 60.7638L481.64 58.8211L466.413 67.5279L462.706 63.6202L480.613 44.3541Z" fill="url(#paint4_linear)"/>
<path d="M565.464 21.9728C567.642 15.4507 570.201 0.244267 569.988 0.0193301C569.773 -0.207371 554.498 1.59812 547.872 3.43183L565.464 21.9728Z" fill="url(#paint5_linear)"/>
<path d="M481.949 67.743L497.781 84.4289L499.903 83.296L483.192 65.6848L481.949 67.743Z" fill="url(#paint6_linear)"/>
<path d="M545.366 4.16578L564.597 24.433L565.465 21.9732L547.872 3.43225L545.366 4.16578Z" fill="url(#paint7_linear)"/>
<path d="M543.454 33.2987C545.773 31.0983 545.855 27.4285 543.67 25.0341C541.392 22.726 537.724 22.6159 535.405 24.8164C533.089 27.0144 533.001 30.6883 535.187 33.0827C537.463 35.3908 541.137 35.4967 543.454 33.2987Z" fill="url(#paint8_linear)"/>
<path d="M77.9988 376.133V343.315H6.96819L0 325.557L51.0252 209.345H90.5865L46.08 310.272H77.9988V281.95L85.4166 261.495H116.886V310.272H131.946V337.246L116.886 343.315V376.133H77.9988Z" fill="#3E404E"/>
<g filter="url(#filter0_d)">
<path d="M275.522 264.504C294.614 308.151 274.708 359.01 231.062 378.101C187.415 397.192 136.556 377.287 117.465 333.64C98.3736 289.994 118.279 239.135 161.926 220.043C205.572 200.952 256.431 220.858 275.522 264.504Z" fill="url(#paint9_linear)"/>
<path d="M162.158 273.853C165.096 280.568 162.034 288.392 155.32 291.33C148.605 294.268 140.78 291.206 137.843 284.491C134.905 277.777 137.967 269.952 144.681 267.014C151.396 264.077 159.221 267.139 162.158 273.853Z" fill="url(#paint10_linear)"/>
<path d="M243.205 238.717C244.891 240.673 244.573 243.232 242.493 244.431C240.413 245.631 237.36 245.017 235.673 243.061C233.987 241.104 234.305 238.546 236.385 237.346C238.465 236.147 241.518 236.76 243.205 238.717Z" fill="url(#paint11_linear)"/>
<path d="M273.681 300.712C276.307 301.627 277.41 305.312 276.145 308.945C274.881 312.577 271.727 314.781 269.101 313.866C266.476 312.952 265.373 309.267 266.637 305.634C267.902 302.002 271.056 299.798 273.681 300.712Z" fill="url(#paint12_linear)"/>
<path d="M193.974 215.932C194.144 217.413 191.183 218.968 187.362 219.405C183.541 219.843 180.306 218.997 180.136 217.516C179.967 216.035 182.927 214.48 186.748 214.043C190.57 213.606 193.805 214.452 193.974 215.932Z" fill="url(#paint13_linear)"/>
<path d="M226.351 348.63C228.204 358.281 220.425 367.887 208.975 370.086C197.524 372.285 186.74 366.245 184.886 356.594C183.033 346.943 190.812 337.337 202.263 335.138C213.713 332.939 224.497 338.98 226.351 348.63Z" fill="url(#paint14_linear)"/>
<path d="M167.389 216.589C167.965 217.767 164.534 220.626 159.727 222.974C154.92 225.323 150.557 226.272 149.981 225.094C149.406 223.916 152.836 221.058 157.643 218.709C162.45 216.361 166.814 215.412 167.389 216.589Z" fill="#C00C14"/>
<path d="M168.145 218.137C169.138 220.169 166.046 223.72 161.239 226.069C156.432 228.417 151.73 228.674 150.737 226.642C149.744 224.609 152.836 221.058 157.643 218.709C162.45 216.361 167.152 216.105 168.145 218.137Z" fill="#C00C14"/>
<path d="M164.638 216.833C164.805 217.176 162.212 218.787 158.845 220.432C155.479 222.076 152.614 223.132 152.446 222.789C152.279 222.447 154.872 220.836 158.239 219.191C161.606 217.546 164.47 216.49 164.638 216.833Z" fill="#400003"/>
<path d="M107.249 311.788C109.289 311.167 112.999 317.415 115.536 325.744C118.072 334.073 118.474 341.329 116.433 341.95C114.392 342.572 110.682 336.323 108.146 327.994C105.61 319.665 105.208 312.41 107.249 311.788Z" fill="url(#paint15_linear)"/>
<path d="M109.929 310.972C113.45 309.899 118.361 315.782 120.897 324.111C123.433 332.44 122.635 340.061 119.113 341.133C115.592 342.206 110.682 336.323 108.145 327.994C105.609 319.665 106.408 312.044 109.929 310.972Z" fill="url(#paint16_linear)"/>
<path d="M106.932 316.271C107.526 316.091 109.447 320.673 111.223 326.506C112.999 332.34 113.958 337.215 113.364 337.396C112.771 337.577 110.849 332.994 109.073 327.161C107.297 321.328 106.338 316.452 106.932 316.271Z" fill="#400104"/>
<path d="M180.004 382.329C180.084 381.2 187.201 380.424 195.902 380.597C204.602 380.77 211.591 381.825 211.511 382.955C211.431 384.085 204.313 384.86 195.613 384.688C186.912 384.515 179.924 383.459 180.004 382.329Z" fill="url(#paint17_linear)"/>
<path d="M180.109 380.845C180.247 378.896 187.412 377.455 196.112 377.628C204.813 377.801 211.754 379.521 211.616 381.471C211.478 383.42 204.313 384.86 195.613 384.688C186.913 384.515 179.971 382.794 180.109 380.845Z" fill="url(#paint18_linear)"/>
<path d="M184.136 383.265C184.16 382.936 189.118 382.768 195.212 382.889C201.305 383.01 206.226 383.374 206.203 383.703C206.18 384.032 201.221 384.2 195.128 384.079C189.034 383.958 184.113 383.594 184.136 383.265Z" fill="#150303"/>
<path d="M269.63 347.47C267.934 346.698 269.114 340.461 272.267 333.539C275.419 326.618 279.349 321.632 281.045 322.405C282.741 323.177 281.56 329.414 278.408 336.336C275.256 343.258 271.326 348.243 269.63 347.47Z" fill="url(#paint19_linear)"/>
<path d="M267.401 346.457C264.475 345.124 264.658 338.432 267.81 331.511C270.962 324.589 275.89 320.058 278.816 321.391C281.742 322.724 281.559 329.415 278.407 336.337C275.255 343.258 270.327 347.789 267.401 346.457Z" fill="url(#paint20_linear)"/>
<path d="M272.427 344.718C271.934 344.493 273.324 340.381 275.531 335.533C277.739 330.685 279.929 326.938 280.422 327.162C280.916 327.387 279.526 331.499 277.318 336.347C275.111 341.195 272.921 344.942 272.427 344.718Z" fill="#130406"/>
<path d="M270.089 251.407C269.129 252.061 266.188 249.417 263.519 245.501C260.849 241.586 259.463 237.881 260.422 237.227C261.382 236.573 264.323 239.217 266.993 243.133C269.662 247.049 271.048 250.753 270.089 251.407Z" fill="url(#paint21_linear)"/>
<path d="M268.829 252.266C267.173 253.394 263.667 251.135 260.998 247.22C258.329 243.304 257.507 239.215 259.162 238.087C260.818 236.958 264.324 239.217 266.993 243.133C269.662 247.048 270.484 251.137 268.829 252.266Z" fill="url(#paint22_linear)"/>
<path d="M269.526 249.026C269.247 249.216 267.505 247.147 265.635 244.405C263.766 241.663 262.477 239.286 262.756 239.095C263.035 238.905 264.777 240.974 266.646 243.716C268.516 246.458 269.805 248.836 269.526 249.026Z" fill="#3D0002"/>
<path d="M216.353 287.466C216.353 292.047 212.64 295.76 208.059 295.76C203.478 295.76 199.765 292.047 199.765 287.466C199.765 282.886 203.478 279.172 208.059 279.172C212.64 279.172 216.353 282.886 216.353 287.466Z" fill="#91080D"/>
<path d="M144.692 348.07C142.61 349.863 138.498 348.504 135.509 345.034C132.519 341.563 131.783 337.296 133.865 335.502C135.948 333.708 140.059 335.067 143.049 338.538C146.039 342.008 146.775 346.276 144.692 348.07Z" fill="#79080D"/>
<path d="M209.718 231.067C209.718 233.815 206.005 236.043 201.424 236.043C196.844 236.043 193.13 233.815 193.13 231.067C193.13 228.318 196.844 226.09 201.424 226.09C206.005 226.09 209.718 228.318 209.718 231.067Z" fill="#BD0C14"/>
<path d="M258.665 336.004C260.472 338.075 259.139 342.195 255.687 345.207C252.235 348.218 247.972 348.981 246.165 346.91C244.358 344.839 245.692 340.719 249.143 337.707C252.595 334.696 256.858 333.933 258.665 336.004Z" fill="#580508"/>
</g>
<path d="M126.384 227.357L130.251 228.86L142.709 224.35C142.709 224.35 145.274 226.493 146.791 228.001C147.927 229.132 148.812 229.604 149.583 231.009C149.891 231.569 150.423 231.904 150.228 232.512C150.063 233.023 149.653 233.174 149.154 233.371C148.529 233.618 148.101 233.458 147.435 233.371C145.872 233.167 143.998 231.653 143.354 232.083C142.709 232.512 142.642 233.535 142.28 234.875C141.918 236.216 144.494 239.906 143.354 242.823C143.039 243.627 143.054 244.374 142.28 244.756C141.678 245.053 141.205 244.944 140.561 244.756C139.364 244.406 139.155 243.396 138.413 242.393C137.03 240.523 135.836 237.023 135.836 237.023C135.836 237.023 136.666 239.74 136.91 241.534C137.08 242.784 137.434 243.533 137.124 244.756C136.968 245.375 137.015 245.911 136.48 246.26C136.122 246.493 135.834 246.475 135.406 246.475C134.978 246.475 134.721 246.438 134.332 246.26C133.629 245.937 133.466 245.404 133.043 244.756C132.447 243.843 132.376 243.19 131.969 242.178C131.068 239.937 129.821 236.379 129.821 236.379C129.821 236.379 130.24 240.341 129.821 242.823C129.692 243.585 130.044 244.341 129.391 244.756C129.1 244.942 128.878 244.971 128.532 244.971C128.186 244.971 127.986 244.904 127.673 244.756C126.853 244.368 126.8 243.629 126.384 242.823C125.739 241.573 125.568 240.768 125.31 239.386C124.91 237.242 124.777 235.986 124.881 233.801C124.945 232.45 124.991 231.679 125.31 230.364C125.604 229.152 126.384 227.357 126.384 227.357Z" fill="#C0C0C0"/>
<path d="M129.821 167.211C129.821 167.211 143.475 152.497 154.739 147.02C166.767 141.17 188.248 139.931 188.248 139.931C188.248 139.931 196.968 152.562 201.137 161.412C207.402 174.714 211.877 197.499 211.877 197.499L164.834 225.209C164.834 225.209 152.056 210.583 145.502 200.077C137.975 188.011 129.821 167.211 129.821 167.211Z" fill="#CACACA"/>
<path d="M146.576 144.442C135.312 149.92 121.658 164.634 121.658 164.634C121.658 164.634 129.813 185.433 137.339 197.499C143.893 208.005 156.671 222.631 156.671 222.631L164.834 225.209C164.834 225.209 152.056 210.583 145.502 200.077C137.975 188.011 129.821 167.211 129.821 167.211C129.821 167.211 143.475 152.497 154.739 147.02C166.767 141.17 188.248 139.931 188.248 139.931C188.248 139.931 196.968 152.561 201.137 161.412C206.925 173.699 211.184 194.078 211.8 197.116L211.877 197.069C211.877 197.069 209.09 176.287 203.714 164.204C199.145 153.935 188.248 139.931 188.248 139.931L180.086 137.353C180.086 137.353 158.605 138.592 146.576 144.442Z" fill="#ACAAAA"/>
<path d="M121.658 164.634C121.658 164.634 129.813 185.433 137.339 197.499C143.893 208.005 156.671 222.631 156.671 222.631L164.834 225.209C164.834 225.209 152.056 210.583 145.502 200.077C137.975 188.011 129.821 167.211 129.821 167.211L121.658 164.634Z" fill="#BBB8B8"/>
<path d="M135.836 237.023C135.836 237.023 137.03 240.523 138.413 242.394C139.155 243.396 139.364 244.407 140.561 244.757C141.205 244.945 141.678 245.053 142.28 244.757C142.882 244.46 142.426 243.829 142.065 243.468C141.705 243.107 141.226 243.493 140.777 243.253C140.015 242.846 140.157 242.054 139.702 241.32C139.163 240.449 138.713 240.057 138.199 239.172C137.822 238.523 137.938 237.906 137.34 237.453C136.852 237.085 135.836 237.023 135.836 237.023Z" fill="#D6D6D6"/>
<path d="M129.82 236.379C129.82 236.379 131.067 239.938 131.968 242.179C132.375 243.19 132.446 243.843 133.043 244.756C133.465 245.404 133.629 245.937 134.331 246.26C134.72 246.438 134.978 246.475 135.405 246.475C135.833 246.475 135.644 245.961 135.621 245.615C135.575 244.962 135.793 244.855 135.406 244.327C134.827 243.538 134.512 243.685 134.05 242.823C133.482 241.764 132.92 240.468 132.398 239.386C131.99 238.542 132.386 237.931 131.754 237.238C131.392 236.841 130.642 236.467 129.82 236.379Z" fill="#D6D6D6"/>
<path d="M125.31 230.365C124.991 231.679 124.945 232.45 124.881 233.801C124.777 235.986 124.91 237.242 125.31 239.386C125.568 240.769 125.739 241.574 126.384 242.823C126.8 243.63 126.853 244.368 127.673 244.757C127.986 244.905 128.186 244.971 128.532 244.971C128.532 244.971 127.585 242.128 127.244 240.246C126.972 238.751 126.718 237.895 126.814 236.379C126.907 234.917 127.116 234.082 127.673 232.727C128.363 231.049 130.251 228.861 130.251 228.861L126.384 227.357C126.384 227.357 125.604 229.153 125.31 230.365Z" fill="#D6D6D6"/>
<path d="M142.996 159.661C142.952 159.346 143.221 159.082 143.537 159.111C145.16 159.258 146.434 159.224 148.295 159.049C152.104 158.689 154.182 157.862 157.746 156.471C159.46 155.802 160.403 155.372 162.042 154.538C165.133 152.965 166.777 151.881 169.56 149.812C172.216 147.839 173.929 146.884 175.96 144.343C176.112 144.153 176.378 144.092 176.585 144.218C179.23 145.82 179.282 148.581 180.515 150.671C180.515 150.671 175.439 152.555 172.568 155.182C169.458 158.028 167.309 159.087 163.331 160.767C159.586 162.35 156.839 163.049 152.806 163.56C149.294 164.005 145.502 166.137 145.502 166.137C144.163 163.563 143.324 162.046 142.996 159.661Z" fill="url(#paint23_linear)"/>
<path d="M211.233 256.141C211.405 255.149 211.233 253.564 211.233 253.564L226.269 257.43L225.195 261.082C225.195 261.082 230.823 267.141 231.639 272.037C232.069 274.615 230.844 280.414 227.128 280.414C220.47 280.414 217.834 277.402 214.025 272.896C210.626 268.875 207.437 265.504 208.87 260.437C209.391 258.595 210.906 258.028 211.233 256.141Z" fill="#C0C0C0"/>
<path d="M225.195 261.081L226.269 257.43H220.899C220.899 257.43 219.871 259.36 220.04 260.652C220.258 262.315 221.249 263.119 222.617 264.089C224.047 265.101 225.475 264.379 226.914 265.377C228.237 266.296 228.56 267.284 229.491 268.599C230.406 269.891 231.639 272.036 231.639 272.036C230.823 267.14 225.195 261.081 225.195 261.081Z" fill="#9C9C9C"/>
<path d="M211.233 256.141C210.906 258.028 209.391 258.595 208.87 260.437C207.437 265.504 210.626 268.875 214.025 272.896C217.834 277.402 220.47 280.414 227.128 280.414C227.128 280.414 222.501 279.293 220.04 277.622C217.337 275.786 216.187 274.163 214.455 271.392C213.322 269.579 212.53 268.545 212.092 266.452C211.714 264.646 211.501 263.474 212.092 261.726C212.54 260.404 213.468 259.999 214.025 258.719C214.545 257.525 214.885 255.497 214.885 255.497L211.233 253.564C211.233 253.564 211.405 255.149 211.233 256.141Z" fill="#D6D6D6"/>
<path d="M143.225 160.982C144.513 161.412 147.325 161.609 149.412 161.412C153.221 161.052 155.471 160.44 159.035 159.049C160.749 158.38 161.691 157.95 163.331 157.115C166.422 155.543 168.495 154.243 171.279 152.175C174.047 150.118 177.25 147.879 178.325 145.731C178.754 146.16 179.216 147.423 179.7 149.168C179.7 149.168 176.557 154.488 173.685 157.115C170.576 159.961 168.427 161.02 164.449 162.7C160.704 164.283 157.957 164.982 153.923 165.493C150.412 165.938 144.902 164.634 144.902 164.634C144.471 164.634 143.439 162.271 143.225 160.982Z" fill="url(#paint24_linear)"/>
<path d="M228.417 141.65C228.417 141.65 229.893 141.524 230.78 141.22C231.774 140.879 232.296 140.554 233.143 139.931C234.099 139.229 234.445 138.615 235.291 137.783C237.83 135.286 241.95 131.554 241.95 131.554C241.95 131.554 242.748 131.198 243.239 131.339C243.642 131.455 243.833 131.658 244.098 131.983C244.334 132.275 244.453 132.475 244.528 132.843C244.628 133.343 244.433 133.636 244.313 134.131C243.768 136.37 241.091 138.975 241.52 139.287L241.95 139.502C242.379 139.502 244.437 137.454 246.246 136.494C247.142 136.02 247.627 135.672 248.609 135.42C249.506 135.19 250.192 134.705 250.972 135.205C251.481 135.532 251.672 135.911 251.831 136.494C251.963 136.98 251.889 137.283 251.831 137.783C251.51 140.553 246.224 141.864 246.676 142.724C246.816 142.991 246.835 143.233 247.105 143.368C247.535 143.583 249.219 143.395 250.542 143.153C252.291 142.834 253.067 141.797 254.838 141.65C255.423 141.601 255.786 141.461 256.342 141.65C256.962 141.86 257.497 142.082 257.631 142.724C257.739 143.243 257.449 143.544 257.201 144.013C256.757 144.851 256.232 145.148 255.483 145.731C254.298 146.652 253.436 146.885 252.046 147.449C250.028 148.269 248.583 147.903 246.676 148.953C245.779 149.447 244.528 149.433 244.528 150.457C244.528 151.96 248.816 152.609 249.253 155.182C249.38 155.927 249.694 156.503 249.253 157.116C248.834 157.697 248.242 157.643 247.535 157.76C245.781 158.05 244.946 156.751 243.239 156.256C241.421 155.73 240.395 155.386 238.513 155.182C236.762 154.993 234.002 155.182 234.002 155.182L233.358 144.872L228.417 141.65Z" fill="#C0C0C0"/>
<path d="M254.838 141.65C253.066 141.797 252.29 142.834 250.542 143.153C250.112 143.368 250.111 143.369 249.897 143.583L249.897 143.583C249.683 143.797 249.408 143.931 249.468 144.227C249.527 144.524 249.827 144.555 250.112 144.657C250.764 144.89 251.184 144.475 251.831 144.227C252.356 144.026 252.583 143.753 253.119 143.583C253.606 143.429 253.903 143.443 254.408 143.368C255.077 143.269 255.465 143.291 256.127 143.153C256.725 143.029 257.764 143.365 257.63 142.724C257.497 142.082 256.962 141.86 256.341 141.65C255.785 141.461 255.423 141.601 254.838 141.65Z" fill="#D6D6D6"/>
<path d="M246.246 136.494C244.527 137.568 243.453 138.428 243.453 138.428C243.453 138.428 242.979 138.824 243.238 139.287C243.577 139.89 244.297 139.921 244.957 139.716C245.472 139.488 245.736 139.31 246.246 139.072C246.825 138.802 247.201 138.754 247.75 138.428C248.517 137.972 248.714 137.399 249.468 136.924C249.944 136.624 250.446 136.748 250.757 136.28C250.994 135.923 251.752 135.706 250.972 135.206C250.192 134.705 249.507 135.19 248.609 135.42C247.627 135.672 247.106 135.957 246.246 136.494Z" fill="#D6D6D6"/>
<path d="M230.78 141.22C229.893 141.524 229.213 141.153 228.417 141.65C226.463 142.869 231.086 145.252 233.358 144.872C234.621 144.66 234.985 143.685 236.15 143.153C236.802 142.856 237.289 142.931 237.869 142.509C238.398 142.123 238.725 141.838 238.943 141.22C239.288 140.242 238.14 139.668 238.298 138.642C238.491 137.399 239.484 137.077 240.231 136.065C240.909 135.147 241.159 134.524 241.95 133.702C242.695 132.928 244.362 132.309 244.098 131.983C243.833 131.658 243.642 131.455 243.239 131.339C242.748 131.198 241.95 131.554 241.95 131.554C241.95 131.554 237.83 135.286 235.291 137.783C234.445 138.615 234.099 139.229 233.143 139.931C232.296 140.554 231.774 140.879 230.78 141.22Z" fill="#D6D6D6"/>
<path d="M186.052 281.405C186.791 280.365 188.017 278.795 188.017 278.795L195.875 280.1L200.922 278.266L204.389 270.748C204.389 270.748 205.226 272.855 205.698 274.228C206.162 275.574 206.573 276.3 206.79 277.708C207.222 280.51 206.652 282.214 205.698 284.885C204.287 288.839 202.317 290.588 199.368 293.585C196.515 296.484 191.073 299.892 191.073 299.892C191.073 299.892 185.13 302.747 182.341 300.762C180.841 299.694 180.259 298.605 179.722 296.847C178.807 293.851 180.328 291.936 181.468 289.017C182.731 285.787 184.042 284.235 186.052 281.405Z" fill="#C0C0C0"/>
<path d="M205.698 274.228C205.225 272.855 204.388 270.748 204.388 270.748C204.388 270.748 199.778 275.242 200.922 278.266C201.531 279.876 203.341 279.87 203.929 281.488C204.827 283.957 203.227 285.611 201.996 287.932C201.014 289.785 200.178 290.67 198.774 292.228C197.184 293.993 196.467 294.764 194.907 296.31C193.452 297.752 191.073 299.892 191.073 299.892C191.073 299.892 196.515 296.484 199.368 293.585C202.316 290.588 204.286 288.839 205.698 284.885C206.652 282.214 207.222 280.51 206.79 277.708C206.573 276.3 206.162 275.574 205.698 274.228Z" fill="#9C9C9C"/>
<path d="M186.053 281.405C184.043 284.235 182.731 285.787 181.469 289.018C180.328 291.937 178.808 293.851 179.722 296.848C180.259 298.607 181.16 300.176 182.342 300.763C182.235 300.089 182.018 300.444 181.805 299.102C181.591 297.761 181.299 296.48 181.469 294.806C181.673 292.785 182.239 291.708 183.093 289.866C184.01 287.89 184.478 286.644 186.053 285.14C186.751 284.472 187.221 284.183 188.017 283.636C190.791 281.73 196.409 282.775 195.876 280.1C195.267 277.049 188.017 278.795 188.017 278.795C188.017 278.795 186.791 280.365 186.053 281.405Z" fill="#D6D6D6"/>
<path d="M143.845 163.058C149.215 163.058 150.615 163.108 154.739 162.271C158.898 161.427 161.23 160.685 165.049 158.834C168.546 157.139 170.468 155.983 173.427 153.464C175.957 151.309 177.938 149.168 179.226 147.234C180.086 148.308 180.043 148.799 180.945 149.383C181.26 149.586 181.448 149.695 181.804 149.812C183.344 150.316 184.098 148.698 185.671 148.308C187.632 147.822 188.811 148.03 190.826 147.879C195.183 147.551 197.638 147.553 201.996 147.234C205.859 146.952 208.058 147.025 211.877 146.375C218.024 145.329 220.901 141.961 227.128 141.65C228.385 141.587 229.122 141.376 230.35 141.65C233.077 142.256 234.064 144.126 235.72 146.375C236.899 147.977 237.766 148.923 238.083 150.886C238.453 153.177 238.341 154.956 236.794 156.686C235.059 158.628 232.757 157.409 230.35 158.404C227.638 159.526 226.716 161.424 223.906 162.271C222.043 162.833 220.849 162.429 218.965 162.915C215.587 163.787 214.26 165.707 211.018 166.997C208.725 167.909 207.428 168.476 205.003 168.93C203.264 169.256 202.258 169.249 200.492 169.359C197.143 169.568 196.84 168.5 192.759 169.359C192.759 170.433 192.782 170.822 193.404 171.722C194.758 173.685 195.804 174.568 197.27 176.448C202.563 183.237 203.236 188.81 209.299 194.921C210.046 195.674 210.666 195.922 211.259 196.801C212.081 198.019 211.596 199.144 212.36 200.399C213.611 202.455 215.299 202.782 217.422 203.916C218.996 204.758 220.1 204.786 221.624 205.715C223.444 206.826 224.213 207.816 225.732 209.313C226.989 210.553 227.54 211.397 228.793 212.643C230.553 214.393 232.063 214.861 233.572 216.832C234.896 218.559 235.519 219.689 236.15 221.772C236.666 223.475 236.889 224.506 236.794 226.283C236.683 228.377 235.87 229.423 235.291 231.438C233.992 235.957 233.669 238.617 232.069 243.038C230.471 247.451 228.471 249.496 227.128 253.993C226.487 256.138 227.415 257.988 225.839 259.578C224.419 261.01 222.915 261.044 220.899 261.081C218.905 261.118 217.739 260.69 215.958 259.793C214.722 259.169 214.002 258.766 213.058 257.752C211.921 256.529 210.357 255.651 210.158 253.993C209.514 248.623 210.488 246.776 211.662 242.393C212.243 240.226 213.605 239.265 213.703 237.023C213.782 235.223 213.52 234.134 212.736 232.512C208.655 230.149 206.292 230.149 198.559 228.646C198.129 228.646 196.84 228.646 195.981 232.727C195.552 235.52 196.315 238.259 197.27 241.964C198.154 245.392 198.402 247.38 199.418 250.771C200.782 255.323 202.119 257.679 203.714 262.155C204.489 264.33 205.325 265.455 205.648 267.74C205.882 269.402 205.923 270.382 205.648 272.037C205.154 274.997 204.449 276.841 202.64 279.34C201.7 280.638 201.271 281.611 199.848 282.347C198.276 283.161 197.106 282.74 195.337 282.777C193.657 282.811 192.691 282.875 191.041 282.562C189.659 282.3 188.765 282.282 187.604 281.488C186.522 280.748 186.233 279.966 185.456 278.91C183.032 275.616 182.123 273.301 180.515 269.459C178.456 264.537 177.805 261.564 176.649 256.356C176.167 254.188 176.055 252.939 175.575 250.771C174.633 246.518 175.059 245.585 172.997 241.749C171.801 239.524 169.795 237.093 168.808 234.768C167.857 232.526 168.272 230.831 167.197 228.646C165.809 225.824 165.909 228.646 162.686 222.202C159.797 216.422 156.242 214.039 154.524 207.81C154.226 206.731 154.111 206.112 153.879 205.017C153.597 203.681 153.5 202.92 153.235 201.58C152.5 197.867 152.161 193.632 151.087 192.129C150.67 192.085 150.432 192.108 150.013 192.129C146.576 192.303 149.426 204.992 146.146 212.321C145.533 213.69 144.83 214.312 144.428 215.757C143.867 217.778 144.869 219.077 144.428 221.128C143.939 223.402 143.385 224.75 141.85 226.498C140.499 228.037 139.501 228.87 137.554 229.505C135.481 230.181 134.14 229.716 131.969 229.505C130.102 229.324 128.865 229.59 127.243 228.646C125.858 227.839 125.064 227.119 124.451 225.639C123.777 224.011 124.641 222.879 124.451 221.128C124.276 219.508 123.85 218.654 123.592 217.046C123.364 215.629 122.968 214.817 123.162 213.395C123.306 212.343 123.774 211.849 124.021 210.817C124.395 209.258 124.416 208.338 124.451 206.736C124.495 204.716 123.922 203.598 124.021 201.58C124.084 200.312 124.287 199.617 124.451 198.358C124.899 194.922 124.552 192.877 125.525 189.551C125.875 188.354 126.061 187.669 126.599 186.544C127.151 185.389 127.607 184.817 128.318 183.751C129.183 182.453 129.826 181.835 130.68 180.529C132.529 177.704 132.761 175.662 134.547 172.796C135.408 171.414 135.85 170.596 136.91 169.359C138.734 167.23 139.773 165.521 142.495 164.849C142.99 164.726 143.407 164.979 143.784 164.634C144.221 164.233 143.684 163.629 143.845 163.058Z" fill="url(#paint25_linear)"/>
<path d="M211.261 196.801C210.667 195.922 210.047 195.674 209.3 194.921C203.237 188.81 202.565 183.237 197.271 176.448C195.805 174.568 194.759 173.685 193.405 171.722C192.784 170.822 192.76 169.359 192.76 169.359C192.76 169.359 190.61 168.9 189.538 168.071C187.14 166.216 188.034 160.552 187.604 160.552C183.037 160.553 188.278 167.66 189.109 172.152C189.608 174.854 189.811 176.397 190.612 179.026C192.046 183.728 193.302 186.29 195.982 190.41C199.059 195.141 200.714 198.413 205.649 201.151C209.779 203.442 219.546 205.051 217.423 203.916C215.3 202.782 213.613 202.455 212.361 200.399C211.598 199.144 212.083 198.019 211.261 196.801Z" fill="url(#paint26_linear)"/>
<path d="M192.759 169.359C196.84 168.5 197.143 169.568 200.492 169.359C203.841 169.151 196.851 168.509 194.907 167.211C193.476 166.256 192.828 165.491 191.685 164.204C190.448 162.812 187.604 160.552 187.604 160.552C187.604 160.552 187.516 162.957 187.819 164.204C188.17 165.649 188.018 166.765 189.108 167.856C190.143 168.892 192.759 169.359 192.759 169.359Z" fill="url(#paint27_linear)"/>
<path d="M198.559 228.646C206.292 230.15 208.655 230.15 212.736 232.512C213.52 234.135 213.782 235.223 213.703 237.023C213.605 239.265 212.243 240.226 211.662 242.394C210.489 246.776 209.514 248.623 210.159 253.993C210.358 255.651 211.921 256.529 213.059 257.752C214.197 258.975 214.643 256.877 214.67 255.926C214.697 254.944 213.545 254.847 213.059 253.993C212.052 252.225 212.167 250.867 212.307 248.838C212.491 246.164 213.819 244.935 214.67 242.394C215.698 239.323 217.574 237.638 217.033 234.446C216.592 231.85 215.584 230.372 213.596 228.646C211.132 226.507 208.909 225.954 205.648 226.068C202.704 226.172 199.203 227.142 198.559 228.646Z" fill="#B26F34"/>
<path d="M166.111 178.596L166.97 177.952C166.97 177.952 167.268 181.356 167.185 183.537C167.101 185.731 167.163 187.016 166.54 189.122C165.72 191.896 164.028 192.907 162.889 195.566C162.189 197.2 161.385 199.862 161.385 199.862C161.385 199.862 160.041 194.193 160.741 192.559C161.88 189.9 163.572 188.888 164.392 186.114C165.015 184.009 164.953 182.724 165.037 180.53C166.111 178.596 166.111 178.596 166.111 178.596Z" fill="#D18643"/>
<path d="M143.784 164.634C143.407 164.979 142.99 164.726 142.495 164.849C139.773 165.521 138.734 167.23 136.91 169.359C135.85 170.596 135.408 171.414 134.547 172.796C132.761 175.662 132.529 177.704 130.68 180.529C129.826 181.835 129.183 182.453 128.318 183.751C127.607 184.817 127.151 185.389 126.599 186.544C126.061 187.669 125.875 188.354 125.525 189.551C124.552 192.877 124.899 194.922 124.451 198.358C124.287 199.617 124.084 200.312 124.021 201.58C123.922 203.598 124.495 204.716 124.451 206.736C124.416 208.338 124.395 209.259 124.021 210.817C123.774 211.849 123.306 212.343 123.162 213.395C122.968 214.817 123.364 215.629 123.592 217.046C123.85 218.654 124.276 219.508 124.451 221.128C124.641 222.879 123.777 224.011 124.451 225.639C125.064 227.119 125.858 227.839 127.243 228.646C128.865 229.59 130.102 229.324 131.969 229.505C133.836 229.686 132.276 220.957 133.043 215.543C134.008 208.732 135.035 204.977 136.91 198.358C138.746 191.875 139.903 188.253 142.495 182.033C145.424 175.003 158.332 167.562 151.302 164.634H143.784Z" fill="#E5A064"/>
<path d="M191.041 282.562C192.691 282.875 195.337 282.777 195.337 282.777C199.61 281.311 192.617 276.27 191.041 272.036C189.615 268.208 188.78 266.068 187.604 262.155C186.655 258.999 186.966 256.923 185.456 253.993C184.249 251.651 182.609 250.949 181.375 248.623C179.208 244.539 179.439 241.626 179.012 237.023C178.648 233.097 179.012 230.87 179.012 226.927C179.012 223.823 179.28 222.072 179.012 218.979C178.784 216.355 179.677 214.298 177.938 212.32C176.548 210.741 175.098 196.802 172.997 196.686C170.586 196.552 169.142 197.401 167.197 198.834C163.783 201.35 159.464 215.757 162.687 222.202C165.909 228.646 165.809 225.824 167.197 228.646C168.272 230.831 167.857 232.526 168.808 234.768C169.795 237.093 171.801 239.524 172.997 241.749C175.06 245.585 174.633 246.518 175.575 250.771C176.055 252.939 176.168 254.187 176.649 256.356L176.682 256.507C177.818 261.622 178.476 264.585 180.515 269.459C182.123 273.301 182.956 275.579 185.456 278.91C186.243 279.958 186.522 280.748 187.604 281.488C188.765 282.282 189.659 282.3 191.041 282.562Z" fill="#E5A064"/>
<path d="M168.221 163.785L168.952 163.334C168.952 163.334 172.805 168.232 174.969 171.581C179.008 177.833 179.969 182.075 183.562 188.593C185.507 192.121 186.778 193.997 188.718 197.528C191.564 202.711 193.903 205.352 195.592 211.018C197.109 216.107 197.311 224.508 197.311 224.508L196.58 224.959C196.58 224.959 196.378 216.559 194.861 211.47C193.172 205.803 190.833 203.162 187.987 197.98C186.047 194.449 184.776 192.573 182.831 189.044C179.238 182.526 178.277 178.284 174.238 172.033C172.074 168.684 168.221 163.785 168.221 163.785Z" fill="url(#paint28_linear)"/>
<path d="M180.515 149.168C180.515 149.168 181.163 149.577 181.589 149.726C182.449 150.027 182.415 149.897 182.878 149.812C183.738 149.597 184.117 148.885 185.026 148.523C185.594 148.297 185.932 148.219 186.53 148.094C187.601 147.87 188.231 147.949 189.322 147.879C191.333 147.749 192.465 147.754 194.478 147.664C196.24 147.585 197.228 147.551 198.989 147.449C201.34 147.313 202.653 147.169 205.003 147.02C206.429 146.929 208.655 146.805 208.655 146.805C209.046 147.21 209.13 147.557 209.299 148.094C209.978 150.248 208.766 151.885 207.151 153.464C205.33 155.245 203.452 155.106 200.922 155.397C197.645 155.774 195.826 154.659 192.545 154.323C186.61 153.715 177.293 153.464 177.293 153.464L179.227 151.316L180.515 149.168Z" fill="#E49046"/>
<path d="M143.999 164.204C143.999 164.204 157.223 164.933 164.941 161.841C172.371 158.866 180.644 149.168 180.644 149.168C180.836 149.319 180.948 149.397 181.159 149.524C181.159 149.524 172.785 159.38 165.479 162.486C157.559 165.853 143.783 164.634 143.783 164.634C143.936 164.491 143.968 164.394 143.999 164.204Z" fill="url(#paint29_linear)"/>
<path d="M143.999 164.204C143.999 164.204 157.223 164.933 164.941 161.841C172.371 158.866 180.644 149.168 180.644 149.168C180.836 149.319 180.948 149.397 181.159 149.524C181.159 149.524 172.785 159.38 165.479 162.486C157.559 165.853 143.783 164.634 143.783 164.634C143.936 164.491 143.968 164.394 143.999 164.204Z" fill="url(#paint30_linear)"/>
<path d="M149.369 177.952H149.799C149.799 177.952 151.674 182.573 151.732 185.685C151.779 188.226 150.658 192.103 150.658 192.103C150.241 192.117 150.411 192.116 150.228 192.116C150.228 192.116 151.383 188.098 151.302 185.47C151.209 182.44 149.369 177.952 149.369 177.952Z" fill="url(#paint31_linear)"/>
<path d="M116.928 123.433C117.524 120.621 118.217 119.077 119.684 116.559C121.067 114.188 122.115 112.981 124.049 110.975C126.78 108.143 128.624 106.754 132.09 104.745C135.435 102.806 137.533 102.005 141.279 100.879C145.366 99.6497 147.787 99.1057 152.077 98.9454C155.494 98.8177 157.452 98.9666 160.807 99.5898C162.813 99.9626 163.975 100.137 165.861 100.879C167.676 101.592 168.654 102.132 170.226 103.242C174.237 106.075 175.335 108.915 177.577 113.123C178.744 115.312 179.259 116.608 180.104 118.922C180.976 121.311 181.516 122.66 181.942 125.152C182.551 128.714 182.947 130.906 181.942 134.388C181.127 137.214 180.074 138.658 178.266 141.047C176.652 143.18 175.573 144.298 173.442 145.988C170.801 148.081 168.906 148.744 165.861 150.284C162.118 152.176 160.032 153.361 155.982 154.58C150.124 156.343 146.366 157.77 140.36 156.513C137.222 155.857 135.504 155.103 132.779 153.506C130.619 152.239 129.555 151.3 127.725 149.64C123.848 146.122 121.865 143.736 119.684 139.114C117.006 133.436 115.636 129.521 116.928 123.433Z" fill="url(#paint32_linear)"/>
<path d="M120.762 136.321L131.287 153.506C131.287 153.506 128.12 153.663 126.347 152.861C124.346 151.957 123.553 150.773 122.265 148.995C121.011 147.263 120.436 146.126 119.903 144.054C119.212 141.374 120.762 136.321 120.762 136.321Z" fill="#B7B6B2"/>
<path d="M175.575 114.584C175.575 114.584 179.947 116.114 181.123 116.989C182.123 117.734 182.58 118.314 183.271 119.352C184.359 120.987 184.703 122.135 184.989 124.078C185.197 125.489 185.197 126.319 184.989 127.729C184.703 129.672 181.123 135.635 181.123 135.635L175.575 114.584Z" fill="#B7B7C3"/>
<g filter="url(#filter1_f)">
<path d="M179.834 118.953L180.788 118.278C180.788 118.278 181.723 119.757 182.22 120.753C182.898 122.112 183.208 122.911 183.651 124.354C183.865 125.05 184.237 125.437 184.128 126.154C184.022 126.856 183.174 127.729 183.174 127.729C183.174 127.729 182.689 125.509 182.22 124.129C181.506 122.03 179.834 118.953 179.834 118.953Z" fill="#62635E" fill-opacity="0.5"/>
</g>
<path d="M120.332 126.87C120.89 124.058 121.538 122.514 122.91 119.996C124.203 117.624 125.183 116.418 126.991 114.411C129.545 111.58 131.269 110.191 134.51 108.182C137.637 106.243 139.599 105.442 143.102 104.315C146.923 103.087 149.187 102.543 153.198 102.382C156.393 102.255 158.224 102.403 161.36 103.027C163.237 103.399 164.323 103.574 166.086 104.315C167.784 105.029 168.698 105.568 170.167 106.678C173.918 109.511 174.944 112.352 177.041 116.559C178.132 118.748 178.614 120.045 179.404 122.359C180.219 124.747 180.724 126.097 181.122 128.589C181.692 132.15 182.062 134.343 181.122 137.825C180.36 140.651 179.376 142.095 177.686 144.484C176.177 146.617 175.168 147.735 173.175 149.425C170.706 151.518 168.933 152.181 166.086 153.721C162.587 155.613 160.636 156.798 156.849 158.017C151.372 159.78 147.858 161.207 142.243 159.95C139.308 159.293 137.702 158.54 135.154 156.943C133.134 155.676 132.14 154.737 130.428 153.076C126.803 149.558 124.949 147.173 122.91 142.551C120.405 136.873 119.125 132.957 120.332 126.87Z" fill="url(#paint33_linear)"/>
<path d="M128.495 130.737C130.428 127.515 131.19 126.41 133.436 124.078C136.008 121.407 137.78 120.194 140.954 118.278C144.039 116.416 145.945 115.643 149.332 114.411C154.057 112.693 156.42 112.263 160.287 112.263C163.019 112.263 164.85 113.964 166.516 116.13C168.664 118.922 169.15 119.562 170.812 122.789C172.139 125.365 173.605 129.663 173.605 129.663C173.605 129.663 174.613 133.314 173.605 135.248C171.027 140.188 166.453 144.142 160.287 147.706C153.852 151.426 151.909 152.862 142.028 152.432C137.302 151.358 130.078 144.396 128.495 136.107C128.163 134.369 127.585 132.254 128.495 130.737Z" fill="url(#paint34_linear)"/>
<path d="M137.732 120.211C140.843 117.892 142.972 116.801 146.539 115.271C150.002 113.785 152.036 112.941 155.775 112.478C157.11 112.313 159.212 112.264 159.212 112.264C159.212 112.264 151.222 120.628 148.472 127.3C145.439 134.66 145.68 147.492 145.68 147.492L136.658 148.351C136.658 148.351 128.666 134.634 129.999 129.018C130.428 127.209 131.646 125.822 133.221 124.078C134.77 122.362 135.879 121.593 137.732 120.211Z" fill="url(#paint35_linear)"/>
<path fill-rule="evenodd" clip-rule="evenodd" d="M132.779 123.723C130.449 126.155 129.659 127.306 127.654 130.666C126.814 132.073 127.196 133.973 127.533 135.651C127.575 135.859 127.616 136.065 127.654 136.266C129.296 144.909 136.79 152.168 141.692 153.288C151.454 153.715 153.746 152.377 159.709 148.898L160.632 148.36C167.028 144.644 171.773 140.521 174.446 135.37C175.493 133.353 174.446 129.546 174.446 129.546C174.446 129.546 172.926 125.065 171.55 122.379C169.826 119.014 169.322 118.347 167.094 115.436C165.366 113.177 163.466 111.404 160.632 111.404C156.621 111.404 154.17 111.852 149.268 113.644C145.755 114.928 143.778 115.734 140.578 117.675C137.285 119.674 135.448 120.938 132.779 123.723ZM133.435 124.077C131.189 126.41 130.428 127.514 128.495 130.736C127.686 132.086 128.053 133.907 128.378 135.516C128.418 135.716 128.458 135.914 128.495 136.107C130.078 144.396 137.302 151.358 142.028 152.432C151.438 152.841 153.649 151.558 159.397 148.222C159.684 148.055 159.98 147.883 160.286 147.706C166.452 144.142 171.026 140.188 173.604 135.247C174.613 133.314 173.604 129.662 173.604 129.662C173.604 129.662 172.138 125.365 170.812 122.789C169.15 119.562 168.664 118.922 166.515 116.13C164.849 113.964 163.019 112.263 160.286 112.263C156.42 112.263 154.057 112.693 149.331 114.411C145.945 115.643 144.038 116.415 140.954 118.278C137.779 120.194 136.008 121.407 133.435 124.077Z" fill="url(#paint36_linear)"/>
<path d="M225.598 232.956C227.405 231.253 229.424 227.787 229.424 227.787C229.424 227.787 228.999 229.131 228.659 229.963C227.874 231.885 227.165 232.781 225.598 234.045C224.037 235.304 221.261 235.949 221.261 235.949C221.261 235.949 224.086 234.381 225.598 232.956Z" fill="#AC7341"/>
<ellipse rx="4.27281" ry="4.26959" transform="matrix(0.777142 -0.629325 0.62932 0.777146 178.758 164.484)" fill="#59C7EA"/>
<path d="M176.144 167.851L176.474 166.36L177.15 166.359L177.512 165.39L178.333 165.245L177.428 164.546L180.596 164.532L178.806 163.899L178.021 162.061L180.04 162.431L180.347 161.844L182.397 162.188L183.048 163.249L183.298 164.427L182.471 166.945L180.867 168.375L178.878 168.943L176.628 168.449L176.144 167.851Z" fill="#DBDBDB"/>
<path fill-rule="evenodd" clip-rule="evenodd" d="M180.663 164.53L178.271 164.551L177.559 164.57L178.415 165.235L177.802 165.523L177.337 166.554L176.572 166.658L176.112 168.006L176.218 165.905L177.034 166.18L177.125 164.212L178.12 164.365L178.085 163.435L177.729 161.647L178.628 161.79L179.815 162.252L179.926 161.538C181.521 161.92 182.345 162.137 182.397 162.188C182.45 162.239 181.784 162.185 180.399 162.027L181.184 163.17L179.645 162.881L178.24 162.278L178.617 163.222L180.042 163.535L178.909 163.93L180.663 164.53Z" fill="white"/>
<path fill-rule="evenodd" clip-rule="evenodd" d="M176.986 164.125C176.986 164.125 176.4 164.238 176.149 164.486C175.898 164.734 175.762 164.845 175.762 164.845C175.762 164.845 176.087 165.079 176.383 165.11C176.678 165.101 176.652 165.163 176.652 165.163C175.908 168.655 178.408 170.262 181.43 167.815C181.43 167.815 180.252 167.519 179.723 167.217C179.059 166.818 179.307 166.054 179.307 166.054C179.307 166.054 179.733 165.684 180.601 165.763C181.016 165.8 181.356 165.571 181.38 165.533C181.44 165.44 181.318 165.177 181.318 165.177C181.318 165.177 181.471 165.143 181.524 164.874C181.578 164.605 181.422 164.19 181.422 164.19C181.422 164.19 180.7 164.097 180.431 164.044C180.162 163.991 179.753 163.899 179.5 163.698C179.247 163.497 178.414 163.253 178.414 163.253C176.366 162.334 175.278 163.371 174.933 164.422C174.783 164.94 174.825 165.709 175.825 166.049C175.254 165.437 175.23 165.053 175.276 164.814C175.434 164.012 176.311 163.498 176.986 164.125Z" fill="#BC0624"/>
<g filter="url(#filter2_i)">
<path d="M174.934 164.421C175.238 163.37 176.308 162.589 177.676 162.991C177.676 162.991 177.171 163.25 177.044 163.555C176.958 163.761 176.986 164.124 176.986 164.124C176.312 163.497 175.434 164.011 175.277 164.813C175.23 165.052 175.255 165.436 175.826 166.048C174.825 165.708 174.784 164.939 174.934 164.421Z" fill="#7B5C46"/>
<path d="M174.934 164.421C175.238 163.37 176.308 162.589 177.676 162.991C177.676 162.991 177.171 163.25 177.044 163.555C176.958 163.761 176.986 164.124 176.986 164.124C176.312 163.497 175.434 164.011 175.277 164.813C175.23 165.052 175.255 165.436 175.826 166.048C174.825 165.708 174.784 164.939 174.934 164.421Z" fill="url(#paint37_linear)"/>
</g>
<path d="M181.187 164.425C181.169 164.403 181.165 164.373 181.177 164.348L181.221 164.251C181.229 164.234 181.24 164.219 181.255 164.207V164.207C181.281 164.186 181.314 164.176 181.347 164.18L181.422 164.19L181.449 164.232C181.456 164.243 181.462 164.255 181.466 164.268V164.268C181.495 164.361 181.424 164.455 181.327 164.454L181.244 164.453C181.222 164.453 181.201 164.443 181.187 164.425V164.425Z" fill="#1C1C21"/>
<mask id="mask0" style="mask-type:alpha" maskUnits="userSpaceOnUse" x="174" y="162" width="4" height="5">
<path d="M174.933 164.422C175.237 163.37 176.307 162.59 177.675 162.992L176.986 164.124C176.311 163.498 175.433 164.011 175.276 164.814C175.229 165.052 175.254 165.436 175.825 166.049C174.825 165.709 174.783 164.94 174.933 164.422Z" fill="#7B5C46"/>
<path d="M174.933 164.422C175.237 163.37 176.307 162.59 177.675 162.992L176.986 164.124C176.311 163.498 175.433 164.011 175.276 164.814C175.229 165.052 175.254 165.436 175.825 166.049C174.825 165.709 174.783 164.94 174.933 164.422Z" fill="url(#paint38_linear)"/>
</mask>
<g mask="url(#mask0)">
<path d="M177.115 162.872C176.783 163.386 176.667 163.638 176.756 163.956" stroke="#372620" stroke-width="0.1" stroke-miterlimit="2.6131"/>
<path d="M177.115 162.872C176.783 163.386 176.667 163.638 176.756 163.956" stroke="url(#paint39_linear)" stroke-width="0.1" stroke-miterlimit="2.6131"/>
<path d="M176.476 162.921C176.402 163.271 176.306 163.513 176.443 163.858" stroke="#372620" stroke-width="0.1" stroke-miterlimit="2.6131"/>
<path d="M176.476 162.921C176.402 163.271 176.306 163.513 176.443 163.858" stroke="url(#paint40_linear)" stroke-width="0.1" stroke-miterlimit="2.6131"/>
<path d="M175.808 163.215C175.852 163.509 175.916 163.651 176.112 163.885" stroke="#372620" stroke-width="0.1" stroke-miterlimit="2.6131"/>
<path d="M175.808 163.215C175.852 163.509 175.916 163.651 176.112 163.885" stroke="url(#paint41_linear)" stroke-width="0.1" stroke-miterlimit="2.6131"/>
<path d="M175.4 163.543C175.539 163.788 175.61 163.865 175.825 164.028" stroke="#372620" stroke-width="0.1" stroke-miterlimit="2.6131"/>
<path d="M175.4 163.543C175.539 163.788 175.61 163.865 175.825 164.028" stroke="url(#paint42_linear)" stroke-width="0.1" stroke-miterlimit="2.6131"/>
<path d="M175.164 163.845C175.275 164.057 175.37 164.145 175.581 164.251" stroke="#372620" stroke-width="0.1" stroke-miterlimit="2.6131"/>
<path d="M175.164 163.845C175.275 164.057 175.37 164.145 175.581 164.251" stroke="url(#paint43_linear)" stroke-width="0.1" stroke-miterlimit="2.6131"/>
<path d="M174.953 164.245C174.916 164.319 175.421 164.644 175.38 164.534" stroke="#372620" stroke-width="0.1" stroke-miterlimit="2.6131"/>
<path d="M174.953 164.245C174.916 164.319 175.421 164.644 175.38 164.534" stroke="url(#paint44_linear)" stroke-width="0.1" stroke-miterlimit="2.6131"/>
<path d="M174.84 164.703C175.002 164.812 175.102 164.85 175.291 164.868" stroke="#372620" stroke-width="0.1" stroke-miterlimit="2.6131"/>
<path d="M174.84 164.703C175.002 164.812 175.102 164.85 175.291 164.868" stroke="url(#paint45_linear)" stroke-width="0.1" stroke-miterlimit="2.6131"/>
</g>
<path d="M181.43 167.815C178.347 168.436 177.837 166.124 177.967 164.891C177.913 165.403 178.297 165.856 178.511 166.013C178.699 166.194 179.106 166.153 179.293 166.105C179.184 166.587 179.446 166.974 179.605 167.106C179.823 167.287 181.43 167.815 181.43 167.815Z" fill="#8F0018"/>
<g filter="url(#filter3_i)">
<path fill-rule="evenodd" clip-rule="evenodd" d="M179.301 164.258C179.301 164.258 179.089 164.163 178.996 164.222C178.903 164.28 178.905 164.346 178.838 164.402C178.77 164.457 178.719 164.464 178.719 164.464C178.719 164.464 178.887 164.546 179.027 164.491C179.168 164.435 179.274 164.337 179.274 164.337L179.301 164.258Z" fill="#A4001B"/>
</g>
<g filter="url(#filter4_i)">
<path fill-rule="evenodd" clip-rule="evenodd" d="M180.548 165.321C180.548 165.321 180.572 165.255 180.841 165.21C181.11 165.165 181.317 165.177 181.317 165.177" fill="#AD0420"/>
</g>
<path d="M176.652 165.164C176.823 165.217 176.947 165.199 177.084 165.153C176.92 165.265 176.77 165.312 176.63 165.271C176.636 165.241 176.645 165.194 176.652 165.164Z" fill="url(#paint46_linear)" fill-opacity="0.3"/>
<g filter="url(#filter5_i)">
<path d="M175.977 164.974C175.977 164.974 176.027 164.997 176.19 164.817C176.353 164.636 176.496 164.503 176.75 164.488C176.778 164.487 177.206 164.594 177.219 164.233C177.255 164.27 177.125 164.688 177.297 164.965C177.027 165.339 176.652 165.164 176.652 165.164C176.652 165.164 176.607 165.116 176.383 165.11C176.16 165.105 175.977 164.974 175.977 164.974Z" fill="#AD0420"/>
</g>
<g filter="url(#filter6_i)">
<path d="M178.956 164.336C179.039 164.21 179.184 164.27 179.184 164.27C179.143 164.25 179.011 164.322 179.036 164.381C179.054 164.424 179.171 164.336 179.178 164.327C179.174 164.335 179.057 164.452 178.996 164.464C178.934 164.475 178.819 164.462 178.819 164.462C178.874 164.457 178.942 164.358 178.956 164.336Z" fill="#810016"/>
</g>
<path fill-rule="evenodd" clip-rule="evenodd" d="M181.705 168.117C183.713 166.492 184.023 163.549 182.397 161.543C180.772 159.537 177.826 159.228 175.818 160.853C173.81 162.478 173.499 165.421 175.125 167.427C176.751 169.433 179.696 169.741 181.705 168.117ZM181.45 167.802C183.284 166.318 183.567 163.63 182.083 161.798C180.598 159.965 177.907 159.684 176.073 161.168C174.238 162.652 173.955 165.34 175.44 167.172C176.925 169.004 179.615 169.286 181.45 167.802Z" fill="#BC0624"/>
<path fill-rule="evenodd" clip-rule="evenodd" d="M181.705 168.117C183.713 166.492 184.023 163.549 182.397 161.543C180.772 159.537 177.826 159.228 175.818 160.853C173.81 162.478 173.499 165.421 175.125 167.427C176.751 169.433 179.696 169.741 181.705 168.117ZM181.45 167.802C183.284 166.318 183.567 163.63 182.083 161.798C180.598 159.965 177.907 159.684 176.073 161.168C174.238 162.652 173.955 165.34 175.44 167.172C176.925 169.004 179.615 169.286 181.45 167.802Z" fill="url(#paint47_linear)"/>
<g filter="url(#filter7_d)">
<path d="M338.744 376.133V343.315H267.714L260.745 325.557L311.771 209.345H351.332L306.825 310.272H338.744V281.95L346.162 261.495H377.631V310.272H392.691V337.246L377.631 343.315V376.133H338.744Z" fill="#3E404E"/>
</g>
<path d="M143.25 455.3C140.85 455.3 138.733 455.083 136.9 454.65C135.1 454.183 133.583 453.3 132.35 452C131.15 450.7 130.25 448.833 129.65 446.4C129.05 443.933 128.75 440.7 128.75 436.7C128.75 432.7 129.05 429.467 129.65 427C130.283 424.5 131.2 422.6 132.4 421.3C133.633 419.967 135.15 419.067 136.95 418.6C138.783 418.1 140.883 417.85 143.25 417.85C145.683 417.85 147.8 418.1 149.6 418.6C151.433 419.067 152.95 419.967 154.15 421.3C155.383 422.6 156.3 424.5 156.9 427C157.5 429.467 157.8 432.7 157.8 436.7C157.8 440.7 157.483 443.933 156.85 446.4C156.25 448.833 155.35 450.7 154.15 452C152.95 453.3 151.433 454.183 149.6 454.65C147.8 455.083 145.683 455.3 143.25 455.3ZM143.25 450.8C144.983 450.8 146.45 450.633 147.65 450.3C148.883 449.933 149.867 449.267 150.6 448.3C151.367 447.3 151.917 445.867 152.25 444C152.583 442.133 152.75 439.7 152.75 436.7C152.75 433.567 152.583 431.05 152.25 429.15C151.917 427.217 151.367 425.767 150.6 424.8C149.867 423.833 148.883 423.183 147.65 422.85C146.45 422.517 144.983 422.35 143.25 422.35C141.617 422.35 140.2 422.517 139 422.85C137.8 423.183 136.817 423.833 136.05 424.8C135.283 425.767 134.7 427.217 134.3 429.15C133.933 431.05 133.75 433.567 133.75 436.7C133.75 439.7 133.9 442.133 134.2 444C134.533 445.867 135.067 447.3 135.8 448.3C136.533 449.267 137.5 449.933 138.7 450.3C139.933 450.633 141.45 450.8 143.25 450.8ZM177.771 455.3C175.371 455.3 173.255 455.083 171.421 454.65C169.621 454.183 168.105 453.3 166.871 452C165.671 450.7 164.771 448.833 164.171 446.4C163.571 443.933 163.271 440.7 163.271 436.7C163.271 432.7 163.571 429.467 164.171 427C164.805 424.5 165.721 422.6 166.921 421.3C168.155 419.967 169.671 419.067 171.471 418.6C173.305 418.1 175.405 417.85 177.771 417.85C180.205 417.85 182.321 418.1 184.121 418.6C185.955 419.067 187.471 419.967 188.671 421.3C189.905 422.6 190.821 424.5 191.421 427C192.021 429.467 192.321 432.7 192.321 436.7C192.321 440.7 192.005 443.933 191.371 446.4C190.771 448.833 189.871 450.7 188.671 452C187.471 453.3 185.955 454.183 184.121 454.65C182.321 455.083 180.205 455.3 177.771 455.3ZM177.771 450.8C179.505 450.8 180.971 450.633 182.171 450.3C183.405 449.933 184.388 449.267 185.121 448.3C185.888 447.3 186.438 445.867 186.771 444C187.105 442.133 187.271 439.7 187.271 436.7C187.271 433.567 187.105 431.05 186.771 429.15C186.438 427.217 185.888 425.767 185.121 424.8C184.388 423.833 183.405 423.183 182.171 422.85C180.971 422.517 179.505 422.35 177.771 422.35C176.138 422.35 174.721 422.517 173.521 422.85C172.321 423.183 171.338 423.833 170.571 424.8C169.805 425.767 169.221 427.217 168.821 429.15C168.455 431.05 168.271 433.567 168.271 436.7C168.271 439.7 168.421 442.133 168.721 444C169.055 445.867 169.588 447.3 170.321 448.3C171.055 449.267 172.021 449.933 173.221 450.3C174.455 450.633 175.971 450.8 177.771 450.8ZM198.693 455V418.15H213.643C214.743 418.15 215.876 418.3 217.043 418.6C218.21 418.867 219.276 419.417 220.243 420.25C221.243 421.083 222.043 422.3 222.643 423.9C223.243 425.467 223.543 427.567 223.543 430.2C223.543 432.833 223.226 434.967 222.593 436.6C221.993 438.233 221.193 439.483 220.193 440.35C219.193 441.217 218.11 441.8 216.943 442.1C215.776 442.4 214.66 442.55 213.593 442.55C213.06 442.55 212.326 442.533 211.393 442.5C210.493 442.467 209.543 442.417 208.543 442.35C207.543 442.283 206.61 442.217 205.743 442.15C204.876 442.083 204.21 442.017 203.743 441.95V455H198.693ZM203.743 438.05H212.893C213.96 438.05 214.91 437.817 215.743 437.35C216.61 436.883 217.276 436.083 217.743 434.95C218.243 433.783 218.493 432.217 218.493 430.25C218.493 428.283 218.243 426.75 217.743 425.65C217.276 424.55 216.643 423.783 215.843 423.35C215.043 422.883 214.16 422.65 213.193 422.65H203.743V438.05ZM239.812 455.3C238.745 455.3 237.495 455.25 236.062 455.15C234.662 455.083 233.278 454.983 231.912 454.85C230.578 454.683 229.462 454.5 228.562 454.3V450.4C229.862 450.5 231.528 450.6 233.562 450.7C235.628 450.767 237.645 450.8 239.612 450.8C241.045 450.8 242.312 450.667 243.412 450.4C244.545 450.133 245.428 449.633 246.062 448.9C246.728 448.167 247.062 447.133 247.062 445.8V443.65C247.062 442.15 246.645 441 245.812 440.2C245.012 439.4 243.778 439 242.112 439H238.362C235.195 439 232.728 438.3 230.962 436.9C229.195 435.5 228.312 433.1 228.312 429.7V427.65C228.312 424.15 229.262 421.65 231.162 420.15C233.095 418.617 235.828 417.85 239.362 417.85C240.528 417.85 241.778 417.917 243.112 418.05C244.445 418.15 245.728 418.283 246.962 418.45C248.228 418.617 249.295 418.783 250.162 418.95V422.85C248.662 422.75 246.978 422.65 245.112 422.55C243.278 422.417 241.545 422.35 239.912 422.35C237.812 422.35 236.145 422.733 234.912 423.5C233.712 424.233 233.112 425.7 233.112 427.9V429.4C233.112 431.2 233.578 432.45 234.512 433.15C235.478 433.85 236.845 434.2 238.612 434.2H242.662C245.795 434.2 248.112 435.033 249.612 436.7C251.112 438.367 251.862 440.483 251.862 443.05V445.65C251.862 448.283 251.328 450.3 250.262 451.7C249.195 453.067 247.745 454.017 245.912 454.55C244.112 455.05 242.078 455.3 239.812 455.3ZM259.363 444.95L258.713 418.2H263.763L263.013 444.95H259.363ZM259.763 455.05C259.163 455.05 258.863 454.767 258.863 454.2V449.85C258.863 449.25 259.163 448.95 259.763 448.95H262.613C263.213 448.95 263.513 449.25 263.513 449.85V454.2C263.513 454.767 263.213 455.05 262.613 455.05H259.763Z" fill="#333333"/>
<path d="M76.43 502V479.98H85.01C85.65 479.98 86.29 480.07 86.93 480.25C87.59 480.41 88.19 480.73 88.73 481.21C89.29 481.69 89.74 482.38 90.08 483.28C90.42 484.18 90.59 485.37 90.59 486.85C90.59 488.35 90.41 489.57 90.05 490.51C89.69 491.43 89.22 492.14 88.64 492.64C88.06 493.14 87.43 493.48 86.75 493.66C86.09 493.84 85.46 493.93 84.86 493.93C84.54 493.93 84.08 493.92 83.48 493.9C82.88 493.88 82.23 493.86 81.53 493.84C80.83 493.8 80.17 493.77 79.55 493.75C78.95 493.71 78.49 493.68 78.17 493.66V502H76.43ZM78.17 492.37H84.65C85.41 492.37 86.1 492.21 86.72 491.89C87.36 491.57 87.87 491.02 88.25 490.24C88.65 489.44 88.85 488.31 88.85 486.85C88.85 485.43 88.66 484.34 88.28 483.58C87.9 482.8 87.41 482.27 86.81 481.99C86.23 481.69 85.59 481.54 84.89 481.54H78.17V492.37ZM91.4884 502L99.2584 479.98H101.508L109.278 502H107.448L105.018 495.16H95.7184L93.3184 502H91.4884ZM96.1684 493.6H104.508L100.368 481.54L96.1684 493.6ZM119.212 502.15C117.332 502.17 115.872 501.8 114.832 501.04C113.792 500.28 113.062 499.07 112.642 497.41C112.242 495.75 112.042 493.58 112.042 490.9C112.042 488.36 112.252 486.27 112.672 484.63C113.112 482.99 113.852 481.78 114.892 481C115.952 480.2 117.422 479.8 119.302 479.8C120.002 479.8 120.762 479.83 121.582 479.89C122.422 479.95 123.252 480.03 124.072 480.13C124.892 480.23 125.632 480.35 126.292 480.49V481.78C125.892 481.74 125.322 481.69 124.582 481.63C123.862 481.55 123.052 481.49 122.152 481.45C121.272 481.39 120.392 481.36 119.512 481.36C118.012 481.36 116.842 481.69 116.002 482.35C115.182 482.99 114.602 484.01 114.262 485.41C113.942 486.81 113.782 488.66 113.782 490.96C113.782 493.42 113.942 495.35 114.262 496.75C114.602 498.13 115.192 499.11 116.032 499.69C116.872 500.27 118.062 500.56 119.602 500.56C120.602 500.56 121.632 500.42 122.692 500.14C123.772 499.86 124.702 499.56 125.482 499.24V492.07H119.722V490.81C120.302 490.73 121.022 490.66 121.882 490.6C122.742 490.54 123.652 490.51 124.612 490.51C125.112 490.51 125.582 490.52 126.022 490.54C126.462 490.56 126.842 490.59 127.162 490.63V502H125.902L125.602 500.44C124.842 500.82 123.892 501.2 122.752 501.58C121.632 501.94 120.452 502.13 119.212 502.15ZM136.535 502.12C136.055 502.12 135.545 502.08 135.005 502C134.485 501.92 134.005 501.75 133.565 501.49C133.125 501.21 132.765 500.8 132.485 500.26C132.205 499.7 132.065 498.95 132.065 498.01V484.21C132.065 483.13 132.265 482.28 132.665 481.66C133.085 481.04 133.605 480.6 134.225 480.34C134.865 480.08 135.525 479.96 136.205 479.98C137.905 480 139.495 480.03 140.975 480.07C142.475 480.11 143.915 480.16 145.295 480.22V481.57H136.565C135.725 481.57 135.055 481.8 134.555 482.26C134.055 482.7 133.805 483.42 133.805 484.42V490.27L144.035 490.42V491.71L133.805 491.86V497.68C133.805 498.5 133.945 499.11 134.225 499.51C134.525 499.91 134.895 500.18 135.335 500.32C135.795 500.44 136.275 500.5 136.775 500.5H145.295V501.85C143.895 501.91 142.445 501.96 140.945 502C139.445 502.04 137.975 502.08 136.535 502.12ZM158.297 502V479.98H159.767L171.947 498.97V479.98H173.687V502H172.247L160.037 483.01V502H158.297ZM185.89 502.18C184.49 502.18 183.27 502.05 182.23 501.79C181.19 501.53 180.32 501.02 179.62 500.26C178.94 499.5 178.42 498.39 178.06 496.93C177.72 495.47 177.55 493.53 177.55 491.11C177.55 488.69 177.73 486.74 178.09 485.26C178.45 483.76 178.98 482.62 179.68 481.84C180.38 481.04 181.25 480.5 182.29 480.22C183.33 479.94 184.53 479.8 185.89 479.8C187.31 479.8 188.54 479.94 189.58 480.22C190.62 480.5 191.48 481.04 192.16 481.84C192.86 482.62 193.38 483.76 193.72 485.26C194.06 486.74 194.23 488.69 194.23 491.11C194.23 493.53 194.06 495.47 193.72 496.93C193.38 498.39 192.86 499.5 192.16 500.26C191.46 501.02 190.59 501.53 189.55 501.79C188.51 502.05 187.29 502.18 185.89 502.18ZM185.89 500.62C187.07 500.62 188.08 500.51 188.92 500.29C189.76 500.05 190.44 499.61 190.96 498.97C191.48 498.31 191.86 497.35 192.1 496.09C192.36 494.83 192.49 493.17 192.49 491.11C192.49 488.95 192.36 487.22 192.1 485.92C191.86 484.62 191.47 483.65 190.93 483.01C190.41 482.35 189.73 481.91 188.89 481.69C188.07 481.47 187.07 481.36 185.89 481.36C184.79 481.36 183.83 481.47 183.01 481.69C182.19 481.91 181.5 482.35 180.94 483.01C180.4 483.65 179.99 484.62 179.71 485.92C179.43 487.22 179.29 488.95 179.29 491.11C179.29 493.17 179.4 494.83 179.62 496.09C179.86 497.35 180.24 498.31 180.76 498.97C181.28 499.61 181.96 500.05 182.8 500.29C183.64 500.51 184.67 500.62 185.89 500.62ZM203.493 502V481.54H196.443V479.98H212.283V481.54H205.233V502H203.493ZM223.412 502V484.21C223.412 483.13 223.612 482.28 224.012 481.66C224.432 481.04 224.952 480.6 225.572 480.34C226.212 480.08 226.872 479.96 227.552 479.98C228.932 480 230.402 480.03 231.962 480.07C233.542 480.09 235.102 480.14 236.642 480.22V481.57H227.882C227.042 481.57 226.372 481.81 225.872 482.29C225.392 482.75 225.152 483.46 225.152 484.42V490.72L235.382 490.87V492.16L225.152 492.31V502H223.412ZM248.117 502.18C246.717 502.18 245.497 502.05 244.457 501.79C243.417 501.53 242.547 501.02 241.847 500.26C241.167 499.5 240.647 498.39 240.287 496.93C239.947 495.47 239.777 493.53 239.777 491.11C239.777 488.69 239.957 486.74 240.317 485.26C240.677 483.76 241.207 482.62 241.907 481.84C242.607 481.04 243.477 480.5 244.517 480.22C245.557 479.94 246.757 479.8 248.117 479.8C249.537 479.8 250.767 479.94 251.807 480.22C252.847 480.5 253.707 481.04 254.387 481.84C255.087 482.62 255.607 483.76 255.947 485.26C256.287 486.74 256.457 488.69 256.457 491.11C256.457 493.53 256.287 495.47 255.947 496.93C255.607 498.39 255.087 499.5 254.387 500.26C253.687 501.02 252.817 501.53 251.777 501.79C250.737 502.05 249.517 502.18 248.117 502.18ZM248.117 500.62C249.297 500.62 250.307 500.51 251.147 500.29C251.987 500.05 252.667 499.61 253.187 498.97C253.707 498.31 254.087 497.35 254.327 496.09C254.587 494.83 254.717 493.17 254.717 491.11C254.717 488.95 254.587 487.22 254.327 485.92C254.087 484.62 253.697 483.65 253.157 483.01C252.637 482.35 251.957 481.91 251.117 481.69C250.297 481.47 249.297 481.36 248.117 481.36C247.017 481.36 246.057 481.47 245.237 481.69C244.417 481.91 243.727 482.35 243.167 483.01C242.627 483.65 242.217 484.62 241.937 485.92C241.657 487.22 241.517 488.95 241.517 491.11C241.517 493.17 241.627 494.83 241.847 496.09C242.087 497.35 242.467 498.31 242.987 498.97C243.507 499.61 244.187 500.05 245.027 500.29C245.867 500.51 246.897 500.62 248.117 500.62ZM268.416 502.18C266.776 502.18 265.356 501.98 264.156 501.58C262.976 501.16 262.066 500.45 261.426 499.45C260.786 498.43 260.466 497.03 260.466 495.25V479.98H262.206V495.25C262.206 496.65 262.456 497.74 262.956 498.52C263.456 499.28 264.166 499.82 265.086 500.14C266.006 500.44 267.116 500.59 268.416 500.59C269.736 500.59 270.856 500.44 271.776 500.14C272.696 499.82 273.396 499.28 273.876 498.52C274.376 497.74 274.626 496.65 274.626 495.25V479.98H276.366V495.25C276.366 497.03 276.046 498.43 275.406 499.45C274.786 500.45 273.876 501.16 272.676 501.58C271.496 501.98 270.076 502.18 268.416 502.18ZM281.431 502V479.98H282.901L295.081 498.97V479.98H296.821V502H295.381L283.171 483.01V502H281.431ZM301.225 502V479.98H309.745C312.305 479.98 314.125 480.91 315.205 482.77C316.305 484.63 316.855 487.37 316.855 490.99C316.855 493.25 316.585 495.2 316.045 496.84C315.525 498.48 314.735 499.75 313.675 500.65C312.635 501.55 311.325 502 309.745 502H301.225ZM302.965 500.44H309.625C310.885 500.44 311.915 500.05 312.715 499.27C313.535 498.47 314.135 497.36 314.515 495.94C314.915 494.52 315.115 492.87 315.115 490.99C315.115 488.71 314.925 486.88 314.545 485.5C314.185 484.12 313.595 483.12 312.775 482.5C311.975 481.86 310.925 481.54 309.625 481.54H302.965V500.44Z" fill="#6E6E6E"/>
<path d="M543.506 446.366C550.656 462.712 543.201 481.758 526.856 488.908C510.51 496.058 491.463 488.603 484.314 472.258C477.164 455.912 484.619 436.865 500.964 429.716C517.31 422.566 536.356 430.021 543.506 446.366Z" fill="url(#paint48_linear)"/>
<path d="M501.052 449.867C502.152 452.382 501.005 455.312 498.491 456.412C495.976 457.512 493.046 456.366 491.945 453.851C490.845 451.337 491.992 448.406 494.506 447.306C497.021 446.206 499.951 447.352 501.052 449.867Z" fill="url(#paint49_linear)"/>
<path d="M531.431 436.144C532.064 437.041 531.927 438.226 531.126 438.791C530.326 439.355 529.164 439.086 528.531 438.189C527.899 437.292 528.036 436.108 528.836 435.543C529.637 434.978 530.799 435.248 531.431 436.144Z" fill="url(#paint50_linear)"/>
<path d="M542.816 459.926C543.8 460.269 544.213 461.649 543.739 463.009C543.266 464.37 542.085 465.195 541.101 464.852C540.118 464.51 539.705 463.13 540.179 461.769C540.652 460.409 541.833 459.584 542.816 459.926Z" fill="url(#paint51_linear)"/>
<path d="M512.966 428.176C513.03 428.73 511.921 429.313 510.49 429.476C509.059 429.64 507.847 429.323 507.784 428.769C507.72 428.214 508.829 427.632 510.26 427.468C511.691 427.304 512.903 427.621 512.966 428.176Z" fill="url(#paint52_linear)"/>
<path d="M525.091 477.871C525.785 481.486 522.872 485.083 518.584 485.907C514.296 486.73 510.257 484.468 509.563 480.854C508.869 477.24 511.782 473.642 516.07 472.819C520.358 471.995 524.397 474.257 525.091 477.871Z" fill="url(#paint53_linear)"/>
<path d="M503.01 428.422C503.226 428.863 501.941 429.934 500.141 430.813C498.341 431.693 496.706 432.048 496.491 431.607C496.276 431.166 497.56 430.095 499.36 429.216C501.161 428.336 502.795 427.981 503.01 428.422Z" fill="#9E0E17"/>
<path d="M503.293 429.001C503.665 429.762 502.507 431.092 500.707 431.972C498.907 432.852 497.146 432.948 496.774 432.186C496.402 431.425 497.56 430.095 499.36 429.216C501.16 428.336 502.921 428.24 503.293 429.001Z" fill="#9E0E17"/>
<path d="M501.98 428.513C502.043 428.641 501.071 429.245 499.81 429.861C498.55 430.477 497.477 430.872 497.414 430.744C497.351 430.615 498.323 430.012 499.583 429.396C500.844 428.78 501.917 428.385 501.98 428.513Z" fill="#580509"/>
<path d="M480.488 464.074C481.252 463.841 482.641 466.181 483.591 469.3C484.541 472.42 484.691 475.137 483.927 475.37C483.163 475.602 481.774 473.262 480.824 470.143C479.874 467.024 479.723 464.307 480.488 464.074Z" fill="url(#paint54_linear)"/>
<path d="M481.492 463.768C482.81 463.367 484.649 465.57 485.599 468.689C486.549 471.808 486.25 474.662 484.931 475.064C483.613 475.465 481.774 473.262 480.824 470.143C479.874 467.024 480.173 464.17 481.492 463.768Z" fill="url(#paint55_linear)"/>
<path d="M480.369 465.753C480.591 465.685 481.311 467.401 481.976 469.586C482.641 471.77 483 473.596 482.778 473.664C482.556 473.732 481.836 472.016 481.171 469.831C480.506 467.646 480.147 465.821 480.369 465.753Z" fill="#470609"/>
<path d="M507.735 491.01C507.764 490.587 510.43 490.297 513.688 490.361C516.947 490.426 519.564 490.821 519.534 491.245C519.504 491.668 516.838 491.958 513.58 491.893C510.322 491.829 507.705 491.433 507.735 491.01Z" fill="url(#paint56_linear)"/>
<path d="M507.774 490.455C507.826 489.724 510.509 489.185 513.767 489.25C517.025 489.315 519.625 489.959 519.573 490.689C519.522 491.419 516.838 491.958 513.58 491.894C510.322 491.829 507.722 491.185 507.774 490.455Z" fill="url(#paint57_linear)"/>
<path d="M509.282 491.361C509.291 491.238 511.148 491.175 513.43 491.22C515.712 491.265 517.555 491.402 517.546 491.525C517.537 491.648 515.68 491.711 513.398 491.666C511.116 491.62 509.274 491.484 509.282 491.361Z" fill="#150303"/>
<path d="M541.299 477.437C540.664 477.148 541.106 474.812 542.287 472.22C543.467 469.628 544.939 467.761 545.574 468.05C546.209 468.339 545.767 470.675 544.586 473.267C543.406 475.859 541.934 477.726 541.299 477.437Z" fill="url(#paint58_linear)"/>
<path d="M540.465 477.057C539.369 476.558 539.438 474.052 540.618 471.46C541.799 468.868 543.644 467.171 544.74 467.67C545.836 468.169 545.767 470.675 544.587 473.267C543.406 475.86 541.561 477.556 540.465 477.057Z" fill="url(#paint59_linear)"/>
<path d="M542.347 476.406C542.162 476.322 542.683 474.782 543.51 472.966C544.337 471.151 545.157 469.747 545.341 469.831C545.526 469.916 545.006 471.456 544.179 473.271C543.352 475.087 542.532 476.49 542.347 476.406Z" fill="#130406"/>
<path d="M541.471 441.461C541.112 441.706 540.01 440.716 539.01 439.249C538.011 437.783 537.492 436.396 537.851 436.151C538.21 435.906 539.312 436.896 540.311 438.362C541.311 439.829 541.83 441.216 541.471 441.461Z" fill="url(#paint60_linear)"/>
<path d="M540.999 441.783C540.379 442.206 539.066 441.359 538.066 439.893C537.067 438.427 536.759 436.895 537.379 436.473C537.999 436.05 539.312 436.896 540.311 438.363C541.311 439.829 541.619 441.36 540.999 441.783Z" fill="url(#paint61_linear)"/>
<path d="M541.26 440.57C541.156 440.641 540.504 439.866 539.804 438.839C539.104 437.812 538.621 436.922 538.725 436.85C538.83 436.779 539.482 437.554 540.182 438.581C540.882 439.608 541.365 440.498 541.26 440.57Z" fill="#550407"/>
<path d="M521.347 454.965C521.347 456.681 519.957 458.072 518.241 458.072C516.526 458.072 515.135 456.681 515.135 454.965C515.135 453.25 516.526 451.859 518.241 451.859C519.957 451.859 521.347 453.25 521.347 454.965Z" fill="#780B12"/>
<path d="M494.51 477.661C493.73 478.333 492.19 477.824 491.071 476.525C489.951 475.225 489.676 473.627 490.455 472.955C491.235 472.283 492.775 472.792 493.895 474.092C495.014 475.391 495.29 476.99 494.51 477.661Z" fill="#650B12"/>
<path d="M518.862 433.844C518.862 434.873 517.472 435.707 515.756 435.707C514.041 435.707 512.65 434.873 512.65 433.844C512.65 432.815 514.041 431.98 515.756 431.98C517.472 431.98 518.862 432.815 518.862 433.844Z" fill="#9B0E17"/>
<path d="M537.193 473.143C537.87 473.918 537.371 475.461 536.078 476.589C534.785 477.717 533.189 478.003 532.512 477.227C531.836 476.452 532.335 474.909 533.627 473.781C534.92 472.653 536.516 472.367 537.193 473.143Z" fill="#4B090E"/>
<path d="M44.227 84.7782C46.7294 90.4991 44.1203 97.1655 38.3993 99.6678C32.6784 102.17 26.0121 99.5611 23.5097 93.8401C21.0073 88.1192 23.6164 81.4529 29.3374 78.9505C35.0583 76.4481 41.7246 79.0572 44.227 84.7782Z" fill="url(#paint62_linear)"/>
<path d="M29.3677 86.0036C29.7528 86.8837 29.3515 87.9093 28.4714 88.2944C27.5913 88.6794 26.5656 88.2781 26.1806 87.398C25.7955 86.5179 26.1968 85.4923 27.0769 85.1072C27.9571 84.7222 28.9827 85.1235 29.3677 86.0036Z" fill="url(#paint63_linear)"/>
<path d="M39.7612 81.3355C39.9825 81.6494 39.9853 82.0284 39.7675 82.182C39.5496 82.3357 39.1935 82.2058 38.9722 81.8919C38.7508 81.578 38.748 81.199 38.9659 81.0454C39.1838 80.8918 39.5398 81.0217 39.7612 81.3355Z" fill="url(#paint64_linear)"/>
<path d="M43.9857 89.5242C44.3299 89.644 44.4744 90.1271 44.3087 90.6032C44.1429 91.0793 43.7295 91.3682 43.3854 91.2483C43.0413 91.1285 42.8967 90.6454 43.0625 90.1693C43.2282 89.6932 43.6416 89.4043 43.9857 89.5242Z" fill="url(#paint65_linear)"/>
<path d="M33.5379 78.4115C33.5601 78.6056 33.172 78.8094 32.6712 78.8667C32.1703 78.924 31.7463 78.8131 31.7241 78.619C31.7018 78.4249 32.0899 78.2211 32.5907 78.1638C33.0916 78.1065 33.5157 78.2174 33.5379 78.4115Z" fill="url(#paint66_linear)"/>
<path d="M37.7819 95.8049C38.0248 97.0699 37.0051 98.329 35.5043 98.6172C34.0035 98.9055 32.5899 98.1137 32.3469 96.8487C32.104 95.5838 33.1237 94.3246 34.6245 94.0364C36.1254 93.7482 37.539 94.5399 37.7819 95.8049Z" fill="url(#paint67_linear)"/>
<path d="M30.0539 78.4977C30.1293 78.6521 29.6797 79.0268 29.0496 79.3346C28.4195 79.6424 27.8476 79.7669 27.7722 79.6125C27.6968 79.4581 28.1464 79.0834 28.7765 78.7756C29.4065 78.4677 29.9785 78.3433 30.0539 78.4977Z" fill="#79101A"/>
<path d="M30.1527 78.7006C30.2828 78.967 29.8775 79.4325 29.2475 79.7403C28.6174 80.0482 28.0011 80.0818 27.871 79.8154C27.7409 79.549 28.1461 79.0835 28.7762 78.7757C29.4063 78.4678 30.0225 78.4342 30.1527 78.7006Z" fill="#79101A"/>
<path d="M29.6929 78.5296C29.7149 78.5745 29.3749 78.7857 28.9336 79.0013C28.4923 79.2169 28.1168 79.3552 28.0949 79.3103C28.0729 79.2654 28.4129 79.0542 28.8542 78.8386C29.2954 78.623 29.671 78.4847 29.6929 78.5296Z" fill="#400205"/>
<path d="M22.1707 90.9759C22.4381 90.8945 22.9245 91.7135 23.2569 92.8052C23.5893 93.8969 23.642 94.848 23.3745 94.9294C23.107 95.0109 22.6207 94.1919 22.2883 93.1001C21.9559 92.0084 21.9032 91.0574 22.1707 90.9759Z" fill="url(#paint68_linear)"/>
<path d="M22.5218 90.869C22.9834 90.7285 23.627 91.4995 23.9594 92.5913C24.2919 93.683 24.1872 94.6819 23.7257 94.8224C23.2641 94.963 22.6205 94.1919 22.288 93.1002C21.9556 92.0085 22.0603 91.0096 22.5218 90.869Z" fill="url(#paint69_linear)"/>
<path d="M22.129 91.5637C22.2068 91.54 22.4587 92.1406 22.6915 92.9052C22.9243 93.6698 23.05 94.3088 22.9722 94.3325C22.8943 94.3562 22.6425 93.7556 22.4097 92.991C22.1768 92.2264 22.0512 91.5874 22.129 91.5637Z" fill="#2A0204"/>
<path d="M31.7071 100.404C31.7176 100.256 32.6506 100.154 33.791 100.177C34.9314 100.199 35.8473 100.338 35.8369 100.486C35.8264 100.634 34.8934 100.735 33.753 100.713C32.6126 100.69 31.6966 100.552 31.7071 100.404Z" fill="url(#paint70_linear)"/>
<path d="M31.721 100.209C31.739 99.9535 32.6782 99.7647 33.8186 99.7874C34.959 99.81 35.8688 100.036 35.8507 100.291C35.8326 100.547 34.8935 100.735 33.7531 100.713C32.6127 100.69 31.7029 100.465 31.721 100.209Z" fill="url(#paint71_linear)"/>
<path d="M32.249 100.526C32.2521 100.483 32.902 100.461 33.7007 100.477C34.4994 100.493 35.1444 100.541 35.1414 100.584C35.1383 100.627 34.4884 100.649 33.6897 100.633C32.891 100.617 32.246 100.569 32.249 100.526Z" fill="#150303"/>
<path d="M43.4545 95.653C43.2322 95.5518 43.3869 94.7343 43.8001 93.827C44.2133 92.9198 44.7285 92.2664 44.9508 92.3676C45.173 92.4688 45.0183 93.2863 44.6051 94.1936C44.1919 95.1009 43.6768 95.7543 43.4545 95.653Z" fill="url(#paint72_linear)"/>
<path d="M43.1627 95.5199C42.7791 95.3453 42.8031 94.4682 43.2163 93.5609C43.6295 92.6536 44.2753 92.0597 44.6589 92.2344C45.0425 92.4091 45.0185 93.2862 44.6053 94.1935C44.1921 95.1007 43.5463 95.6946 43.1627 95.5199Z" fill="url(#paint73_linear)"/>
<path d="M43.8213 95.2921C43.7566 95.2627 43.9387 94.7237 44.2281 94.0883C44.5175 93.4528 44.8045 92.9616 44.8692 92.9911C44.9339 93.0205 44.7517 93.5595 44.4623 94.1949C44.173 94.8303 43.8859 95.3216 43.8213 95.2921Z" fill="#130406"/>
<path d="M43.5149 83.0613C43.3892 83.147 43.0036 82.8004 42.6537 82.2872C42.3038 81.774 42.1221 81.2884 42.2479 81.2027C42.3736 81.117 42.7592 81.4636 43.1091 81.9768C43.459 82.49 43.6407 82.9756 43.5149 83.0613Z" fill="url(#paint74_linear)"/>
<path d="M43.3498 83.1739C43.1329 83.3219 42.6733 83.0257 42.3235 82.5125C41.9736 81.9992 41.8659 81.4633 42.0829 81.3154C42.2998 81.1674 42.7593 81.4636 43.1092 81.9768C43.4591 82.49 43.5668 83.026 43.3498 83.1739Z" fill="url(#paint75_linear)"/>
<path d="M43.4412 82.7494C43.4047 82.7743 43.1764 82.5031 42.9313 82.1437C42.6863 81.7842 42.5173 81.4726 42.5539 81.4477C42.5905 81.4228 42.8188 81.6939 43.0638 82.0534C43.3089 82.4128 43.4778 82.7244 43.4412 82.7494Z" fill="#2E0102"/>
<path d="M36.4714 87.7879C36.4714 88.3884 35.9846 88.8751 35.3842 88.8751C34.7838 88.8751 34.2971 88.3884 34.2971 87.7879C34.2971 87.1875 34.7838 86.7008 35.3842 86.7008C35.9846 86.7008 36.4714 87.1875 36.4714 87.7879Z" fill="#5F0E17"/>
<path d="M27.0784 95.7315C26.8054 95.9667 26.2665 95.7885 25.8746 95.3336C25.4827 94.8788 25.3863 94.3194 25.6592 94.0843C25.9322 93.8491 26.4711 94.0273 26.863 94.4822C27.2549 94.937 27.3513 95.4964 27.0784 95.7315Z" fill="#510E17"/>
<path d="M35.6017 80.3953C35.6017 80.7556 35.115 81.0476 34.5146 81.0476C33.9142 81.0476 33.4275 80.7556 33.4275 80.3953C33.4275 80.0351 33.9142 79.743 34.5146 79.743C35.115 79.743 35.6017 80.0351 35.6017 80.3953Z" fill="#7A101B"/>
<path d="M42.0178 94.15C42.2547 94.4214 42.0799 94.9614 41.6275 95.3562C41.1751 95.7509 40.6163 95.8509 40.3795 95.5794C40.1426 95.308 40.3174 94.7679 40.7698 94.3732C41.2222 93.9785 41.781 93.8785 42.0178 94.15Z" fill="#3D0C14"/>
<defs>
<filter id="filter0_d" x="94.9465" y="208.792" width="187.827" height="180.56" filterUnits="userSpaceOnUse" color-interpolation-filters="sRGB">
<feFlood flood-opacity="0" result="BackgroundImageFix"/>
<feColorMatrix in="SourceAlpha" type="matrix" values="0 0 0 0 0 0 0 0 0 0 0 0 0 0 0 0 0 0 127 0" result="hardAlpha"/>
<feOffset dx="-7"/>
<feGaussianBlur stdDeviation="2"/>
<feColorMatrix type="matrix" values="0 0 0 0 0 0 0 0 0 0 0 0 0 0 0 0 0 0 0.4 0"/>
<feBlend mode="normal" in2="BackgroundImageFix" result="effect1_dropShadow"/>
<feBlend mode="normal" in="SourceGraphic" in2="effect1_dropShadow" result="shape"/>
</filter>
<filter id="filter1_f" x="175.834" y="114.278" width="12.3136" height="17.4515" filterUnits="userSpaceOnUse" color-interpolation-filters="sRGB">
<feFlood flood-opacity="0" result="BackgroundImageFix"/>
<feBlend mode="normal" in="SourceGraphic" in2="BackgroundImageFix" result="shape"/>
<feGaussianBlur stdDeviation="2" result="effect1_foregroundBlur"/>
</filter>
<filter id="filter2_i" x="174.869" y="162.883" width="2.80692" height="7.16456" filterUnits="userSpaceOnUse" color-interpolation-filters="sRGB">
<feFlood flood-opacity="0" result="BackgroundImageFix"/>
<feBlend mode="normal" in="SourceGraphic" in2="BackgroundImageFix" result="shape"/>
<feColorMatrix in="SourceAlpha" type="matrix" values="0 0 0 0 0 0 0 0 0 0 0 0 0 0 0 0 0 0 127 0" result="hardAlpha"/>
<feOffset dy="4"/>
<feGaussianBlur stdDeviation="2"/>
<feComposite in2="hardAlpha" operator="arithmetic" k2="-1" k3="1"/>
<feColorMatrix type="matrix" values="0 0 0 0 0 0 0 0 0 0 0 0 0 0 0 0 0 0 0.35 0"/>
<feBlend mode="normal" in2="shape" result="effect1_innerShadow"/>
</filter>
<filter id="filter3_i" x="178.719" y="164.203" width="0.581267" height="0.807166" filterUnits="userSpaceOnUse" color-interpolation-filters="sRGB">
<feFlood flood-opacity="0" result="BackgroundImageFix"/>
<feBlend mode="normal" in="SourceGraphic" in2="BackgroundImageFix" result="shape"/>
<feColorMatrix in="SourceAlpha" type="matrix" values="0 0 0 0 0 0 0 0 0 0 0 0 0 0 0 0 0 0 127 0" result="hardAlpha"/>
<feOffset dy="0.5"/>
<feGaussianBlur stdDeviation="0.25"/>
<feComposite in2="hardAlpha" operator="arithmetic" k2="-1" k3="1"/>
<feColorMatrix type="matrix" values="0 0 0 0 0 0 0 0 0 0 0 0 0 0 0 0 0 0 0.05 0"/>
<feBlend mode="normal" in2="shape" result="effect1_innerShadow"/>
</filter>
<filter id="filter4_i" x="180.548" y="165.176" width="0.769222" height="0.245121" filterUnits="userSpaceOnUse" color-interpolation-filters="sRGB">
<feFlood flood-opacity="0" result="BackgroundImageFix"/>
<feBlend mode="normal" in="SourceGraphic" in2="BackgroundImageFix" result="shape"/>
<feColorMatrix in="SourceAlpha" type="matrix" values="0 0 0 0 0 0 0 0 0 0 0 0 0 0 0 0 0 0 127 0" result="hardAlpha"/>
<feOffset dy="0.1"/>
<feGaussianBlur stdDeviation="0.05"/>
<feComposite in2="hardAlpha" operator="arithmetic" k2="-1" k3="1"/>
<feColorMatrix type="matrix" values="0 0 0 0 0 0 0 0 0 0 0 0 0 0 0 0 0 0 0.25 0"/>
<feBlend mode="normal" in2="shape" result="effect1_innerShadow"/>
</filter>
<filter id="filter5_i" x="175.977" y="164.233" width="1.32003" height="1.47136" filterUnits="userSpaceOnUse" color-interpolation-filters="sRGB">
<feFlood flood-opacity="0" result="BackgroundImageFix"/>
<feBlend mode="normal" in="SourceGraphic" in2="BackgroundImageFix" result="shape"/>
<feColorMatrix in="SourceAlpha" type="matrix" values="0 0 0 0 0 0 0 0 0 0 0 0 0 0 0 0 0 0 127 0" result="hardAlpha"/>
<feOffset dy="0.5"/>
<feGaussianBlur stdDeviation="0.75"/>
<feComposite in2="hardAlpha" operator="arithmetic" k2="-1" k3="1"/>
<feColorMatrix type="matrix" values="0 0 0 0 0 0 0 0 0 0 0 0 0 0 0 0 0 0 0.04 0"/>
<feBlend mode="normal" in2="shape" result="effect1_innerShadow"/>
</filter>
<filter id="filter6_i" x="178.819" y="164.256" width="0.365052" height="0.312399" filterUnits="userSpaceOnUse" color-interpolation-filters="sRGB">
<feFlood flood-opacity="0" result="BackgroundImageFix"/>
<feBlend mode="normal" in="SourceGraphic" in2="BackgroundImageFix" result="shape"/>
<feColorMatrix in="SourceAlpha" type="matrix" values="0 0 0 0 0 0 0 0 0 0 0 0 0 0 0 0 0 0 127 0" result="hardAlpha"/>
<feOffset dy="0.1"/>
<feGaussianBlur stdDeviation="0.05"/>
<feComposite in2="hardAlpha" operator="arithmetic" k2="-1" k3="1"/>
<feColorMatrix type="matrix" values="0 0 0 0 0 0 0 0 0 0 0 0 0 0 0 0 0 0 0.25 0"/>
<feBlend mode="normal" in2="shape" result="effect1_innerShadow"/>
</filter>
<filter id="filter7_d" x="249.745" y="205.345" width="142.946" height="174.787" filterUnits="userSpaceOnUse" color-interpolation-filters="sRGB">
<feFlood flood-opacity="0" result="BackgroundImageFix"/>
<feColorMatrix in="SourceAlpha" type="matrix" values="0 0 0 0 0 0 0 0 0 0 0 0 0 0 0 0 0 0 127 0" result="hardAlpha"/>
<feOffset dx="-7"/>
<feGaussianBlur stdDeviation="2"/>
<feColorMatrix type="matrix" values="0 0 0 0 0 0 0 0 0 0 0 0 0 0 0 0 0 0 0.4 0"/>
<feBlend mode="normal" in2="BackgroundImageFix" result="effect1_dropShadow"/>
<feBlend mode="normal" in="SourceGraphic" in2="effect1_dropShadow" result="shape"/>
</filter>
<linearGradient id="paint0_linear" x1="459.108" y1="103.486" x2="492.291" y2="72.5525" gradientUnits="userSpaceOnUse">
<stop stop-color="#F67C01"/>
<stop offset="1" stop-color="#BB5E00"/>
</linearGradient>
<linearGradient id="paint1_linear" x1="514.49" y1="22.852" x2="546.376" y2="56.4559" gradientUnits="userSpaceOnUse">
<stop offset="0.213542" stop-color="#D2CECE"/>
<stop offset="1" stop-color="#393535"/>
</linearGradient>
<linearGradient id="paint2_linear" x1="514.49" y1="22.852" x2="546.376" y2="56.4559" gradientUnits="userSpaceOnUse">
<stop offset="0.213542" stop-color="#D2CECE"/>
<stop offset="1" stop-color="#393535"/>
</linearGradient>
<linearGradient id="paint3_linear" x1="502.807" y1="77.8406" x2="518.086" y2="93.9425" gradientUnits="userSpaceOnUse">
<stop stop-color="#404040"/>
<stop offset="1"/>
</linearGradient>
<linearGradient id="paint4_linear" x1="488.857" y1="63.139" x2="472.25" y2="45.6369" gradientUnits="userSpaceOnUse">
<stop/>
<stop offset="1" stop-color="#7A7A7A"/>
</linearGradient>
<linearGradient id="paint5_linear" x1="549.208" y1="0.553052" x2="569.8" y2="22.2556" gradientUnits="userSpaceOnUse">
<stop stop-color="#8C8B8B"/>
<stop offset="1"/>
</linearGradient>
<linearGradient id="paint6_linear" x1="478.014" y1="60.1239" x2="505.914" y2="89.5273" gradientUnits="userSpaceOnUse">
<stop offset="0.1875" stop-color="white"/>
<stop offset="1" stop-color="#393535"/>
</linearGradient>
<linearGradient id="paint7_linear" x1="543.086" y1="-0.290321" x2="570.986" y2="29.1131" gradientUnits="userSpaceOnUse">
<stop offset="0.135417" stop-color="white"/>
<stop offset="1" stop-color="#393535"/>
</linearGradient>
<linearGradient id="paint8_linear" x1="543.555" y1="33.8546" x2="534.92" y2="24.7536" gradientUnits="userSpaceOnUse">
<stop offset="0.0885417" stop-color="#212121"/>
<stop offset="1" stop-color="#606060"/>
</linearGradient>
<linearGradient id="paint9_linear" x1="161.926" y1="220.044" x2="231.062" y2="378.101" gradientUnits="userSpaceOnUse">
<stop stop-color="#C50D15"/>
<stop offset="1" stop-color="#280001"/>
</linearGradient>
<linearGradient id="paint10_linear" x1="144.681" y1="267.014" x2="155.32" y2="291.33" gradientUnits="userSpaceOnUse">
<stop stop-color="#1F0406"/>
<stop offset="1" stop-color="#A8111A"/>
</linearGradient>
<linearGradient id="paint11_linear" x1="236.385" y1="237.346" x2="240.976" y2="245.306" gradientUnits="userSpaceOnUse">
<stop stop-color="#190306"/>
<stop offset="1" stop-color="#E0131F"/>
</linearGradient>
<linearGradient id="paint12_linear" x1="266.637" y1="305.634" x2="276.145" y2="308.945" gradientUnits="userSpaceOnUse">
<stop stop-color="#2E0508"/>
<stop offset="1" stop-color="#7D060D"/>
</linearGradient>
<linearGradient id="paint13_linear" x1="186.748" y1="214.043" x2="187.362" y2="219.405" gradientUnits="userSpaceOnUse">
<stop stop-color="#420609"/>
<stop offset="1" stop-color="#DF131E"/>
</linearGradient>
<linearGradient id="paint14_linear" x1="202.263" y1="335.138" x2="208.975" y2="370.086" gradientUnits="userSpaceOnUse">
<stop stop-color="#150305"/>
<stop offset="1" stop-color="#70090F"/>
</linearGradient>
<linearGradient id="paint15_linear" x1="116.824" y1="342.207" x2="108.53" y2="310.689" gradientUnits="userSpaceOnUse">
<stop stop-color="#6F060A"/>
<stop offset="1" stop-color="#8C080E"/>
</linearGradient>
<linearGradient id="paint16_linear" x1="119.713" y1="341.327" x2="110.909" y2="309.931" gradientUnits="userSpaceOnUse">
<stop stop-color="#6F060A"/>
<stop offset="1" stop-color="#8C080E"/>
</linearGradient>
<linearGradient id="paint17_linear" x1="213.035" y1="382.292" x2="179.944" y2="383.973" gradientUnits="userSpaceOnUse">
<stop stop-color="#2A0001"/>
<stop offset="1" stop-color="#360103"/>
</linearGradient>
<linearGradient id="paint18_linear" x1="213.176" y1="380.305" x2="179.966" y2="380.298" gradientUnits="userSpaceOnUse">
<stop stop-color="#2A0001"/>
<stop offset="1" stop-color="#360103"/>
</linearGradient>
<linearGradient id="paint19_linear" x1="269.436" y1="347.183" x2="281.047" y2="322.3" gradientUnits="userSpaceOnUse">
<stop stop-color="#380103"/>
<stop offset="1" stop-color="#470205"/>
</linearGradient>
<linearGradient id="paint20_linear" x1="267.012" y1="346.08" x2="278.526" y2="321.152" gradientUnits="userSpaceOnUse">
<stop stop-color="#380103"/>
<stop offset="1" stop-color="#470205"/>
</linearGradient>
<linearGradient id="paint21_linear" x1="259.482" y1="236.043" x2="271.094" y2="250.972" gradientUnits="userSpaceOnUse">
<stop stop-color="#92090E"/>
<stop offset="1" stop-color="#82070C"/>
</linearGradient>
<linearGradient id="paint22_linear" x1="258.157" y1="236.947" x2="269.386" y2="252.197" gradientUnits="userSpaceOnUse">
<stop stop-color="#92090E"/>
<stop offset="1" stop-color="#82070C"/>
</linearGradient>
<linearGradient id="paint23_linear" x1="171.923" y1="146.59" x2="142.924" y2="162.486" gradientUnits="userSpaceOnUse">
<stop stop-color="#778186"/>
<stop offset="1" stop-color="#474B4C"/>
</linearGradient>
<linearGradient id="paint24_linear" x1="172.353" y1="147.879" x2="144.428" y2="162.915" gradientUnits="userSpaceOnUse">
<stop stop-color="#C1C1C1"/>
<stop offset="1" stop-color="#929292"/>
</linearGradient>
<linearGradient id="paint25_linear" x1="201.351" y1="146.805" x2="175.145" y2="287.073" gradientUnits="userSpaceOnUse">
<stop stop-color="#D4853F"/>
<stop offset="1" stop-color="#D79962"/>
</linearGradient>
<linearGradient id="paint26_linear" x1="201.352" y1="146.805" x2="175.145" y2="287.073" gradientUnits="userSpaceOnUse">
<stop stop-color="#A25D21"/>
<stop offset="1" stop-color="#D79962"/>
</linearGradient>
<linearGradient id="paint27_linear" x1="201.352" y1="146.805" x2="175.145" y2="287.073" gradientUnits="userSpaceOnUse">
<stop stop-color="#995316"/>
<stop offset="1" stop-color="#D79962"/>
</linearGradient>
<linearGradient id="paint28_linear" x1="180.3" y1="188.907" x2="184.167" y2="186.974" gradientUnits="userSpaceOnUse">
<stop stop-color="#6A4222"/>
<stop offset="1" stop-color="#D58947"/>
</linearGradient>
<linearGradient id="paint29_linear" x1="158.82" y1="160.338" x2="160.109" y2="164.419" gradientUnits="userSpaceOnUse">
<stop stop-color="#D48845"/>
<stop offset="1" stop-color="#4E3219"/>
</linearGradient>
<linearGradient id="paint30_linear" x1="177.938" y1="151.101" x2="180.73" y2="150.886" gradientUnits="userSpaceOnUse">
<stop stop-color="#D48641" stop-opacity="0"/>
<stop offset="1" stop-color="#4E3219"/>
</linearGradient>
<linearGradient id="paint31_linear" x1="149.584" y1="178.596" x2="151.019" y2="192.159" gradientUnits="userSpaceOnUse">
<stop stop-color="#D58A49"/>
<stop offset="1" stop-color="#281709"/>
</linearGradient>
<linearGradient id="paint32_linear" x1="119.014" y1="119.954" x2="169.923" y2="128.117" gradientUnits="userSpaceOnUse">
<stop stop-color="#9F9F9F"/>
<stop offset="1" stop-color="#787877"/>
</linearGradient>
<linearGradient id="paint33_linear" x1="119.873" y1="127.687" x2="159.182" y2="128.761" gradientUnits="userSpaceOnUse">
<stop stop-color="#CBCBCB"/>
<stop offset="1" stop-color="#828380"/>
</linearGradient>
<linearGradient id="paint34_linear" x1="129.354" y1="132.885" x2="173.175" y2="133.959" gradientUnits="userSpaceOnUse">
<stop stop-color="#1B0A5D"/>
<stop offset="0.390625" stop-color="#1B0A5D"/>
<stop offset="0.970597" stop-color="#010005"/>
</linearGradient>
<linearGradient id="paint35_linear" x1="159.427" y1="114.626" x2="136.228" y2="131.381" gradientUnits="userSpaceOnUse">
<stop stop-color="#FFF9FF" stop-opacity="0.36"/>
<stop offset="1" stop-color="#1B0A5D" stop-opacity="0"/>
</linearGradient>
<linearGradient id="paint36_linear" x1="127.176" y1="132.413" x2="174.863" y2="132.413" gradientUnits="userSpaceOnUse">
<stop stop-color="#5B5C59"/>
<stop offset="1" stop-color="#3F403E"/>
</linearGradient>
<linearGradient id="paint37_linear" x1="175.636" y1="163.348" x2="176.518" y2="164.45" gradientUnits="userSpaceOnUse">
<stop stop-color="#A58C7A"/>
<stop offset="1" stop-color="#7B5C46" stop-opacity="0"/>
</linearGradient>
<linearGradient id="paint38_linear" x1="175.635" y1="163.349" x2="176.517" y2="164.451" gradientUnits="userSpaceOnUse">
<stop stop-color="#A58C7A"/>
<stop offset="1" stop-color="#7B5C46" stop-opacity="0"/>
</linearGradient>
<linearGradient id="paint39_linear" x1="176.714" y1="163.175" x2="177.113" y2="163.668" gradientUnits="userSpaceOnUse">
<stop stop-color="#95614F"/>
<stop offset="1" stop-color="#372620" stop-opacity="0"/>
</linearGradient>
<linearGradient id="paint40_linear" x1="176.163" y1="163.12" x2="176.635" y2="163.703" gradientUnits="userSpaceOnUse">
<stop stop-color="#95614F"/>
<stop offset="1" stop-color="#372620" stop-opacity="0"/>
</linearGradient>
<linearGradient id="paint41_linear" x1="175.736" y1="163.273" x2="176.184" y2="163.827" gradientUnits="userSpaceOnUse">
<stop stop-color="#95614F"/>
<stop offset="1" stop-color="#372620" stop-opacity="0"/>
</linearGradient>
<linearGradient id="paint42_linear" x1="175.409" y1="163.535" x2="175.815" y2="164.036" gradientUnits="userSpaceOnUse">
<stop stop-color="#95614F"/>
<stop offset="1" stop-color="#372620" stop-opacity="0"/>
</linearGradient>
<linearGradient id="paint43_linear" x1="175.191" y1="163.824" x2="175.554" y2="164.273" gradientUnits="userSpaceOnUse">
<stop stop-color="#95614F"/>
<stop offset="1" stop-color="#372620" stop-opacity="0"/>
</linearGradient>
<linearGradient id="paint44_linear" x1="175.013" y1="164.197" x2="175.328" y2="164.586" gradientUnits="userSpaceOnUse">
<stop stop-color="#95614F"/>
<stop offset="1" stop-color="#372620" stop-opacity="0"/>
</linearGradient>
<linearGradient id="paint45_linear" x1="174.936" y1="164.625" x2="175.195" y2="164.946" gradientUnits="userSpaceOnUse">
<stop stop-color="#95614F"/>
<stop offset="1" stop-color="#372620" stop-opacity="0"/>
</linearGradient>
<linearGradient id="paint46_linear" x1="176.808" y1="165.101" x2="176.841" y2="165.334" gradientUnits="userSpaceOnUse">
<stop/>
<stop offset="1" stop-color="#BC0624"/>
</linearGradient>
<linearGradient id="paint47_linear" x1="178.716" y1="159.677" x2="179.579" y2="167.957" gradientUnits="userSpaceOnUse">
<stop offset="0.0001" stop-color="#F44336"/>
<stop offset="1" stop-color="#BC0624" stop-opacity="0"/>
</linearGradient>
<linearGradient id="paint48_linear" x1="500.964" y1="429.716" x2="526.856" y2="488.908" gradientUnits="userSpaceOnUse">
<stop stop-color="#A00F18"/>
<stop offset="1" stop-color="#240508"/>
</linearGradient>
<linearGradient id="paint49_linear" x1="494.506" y1="447.306" x2="498.491" y2="456.412" gradientUnits="userSpaceOnUse">
<stop stop-color="#1F080C"/>
<stop offset="1" stop-color="#88111B"/>
</linearGradient>
<linearGradient id="paint50_linear" x1="528.836" y1="435.543" x2="531.126" y2="438.791" gradientUnits="userSpaceOnUse">
<stop stop-color="#1C070C"/>
<stop offset="1" stop-color="#AF131F"/>
</linearGradient>
<linearGradient id="paint51_linear" x1="540.179" y1="461.769" x2="543.739" y2="463.009" gradientUnits="userSpaceOnUse">
<stop stop-color="#2B090E"/>
<stop offset="1" stop-color="#670911"/>
</linearGradient>
<linearGradient id="paint52_linear" x1="510.26" y1="427.468" x2="510.49" y2="429.477" gradientUnits="userSpaceOnUse">
<stop stop-color="#40090F"/>
<stop offset="1" stop-color="#AE131E"/>
</linearGradient>
<linearGradient id="paint53_linear" x1="516.07" y1="472.819" x2="518.584" y2="485.907" gradientUnits="userSpaceOnUse">
<stop stop-color="#16070B"/>
<stop offset="1" stop-color="#5C0C13"/>
</linearGradient>
<linearGradient id="paint54_linear" x1="484.074" y1="475.466" x2="480.968" y2="463.663" gradientUnits="userSpaceOnUse">
<stop stop-color="#5D090F"/>
<stop offset="1" stop-color="#720B12"/>
</linearGradient>
<linearGradient id="paint55_linear" x1="485.156" y1="475.136" x2="481.859" y2="463.379" gradientUnits="userSpaceOnUse">
<stop stop-color="#5D090F"/>
<stop offset="1" stop-color="#720B12"/>
</linearGradient>
<linearGradient id="paint56_linear" x1="520.105" y1="490.996" x2="507.712" y2="491.626" gradientUnits="userSpaceOnUse">
<stop stop-color="#260508"/>
<stop offset="1" stop-color="#2F0609"/>
</linearGradient>
<linearGradient id="paint57_linear" x1="520.158" y1="490.253" x2="507.72" y2="490.25" gradientUnits="userSpaceOnUse">
<stop stop-color="#260508"/>
<stop offset="1" stop-color="#2F0609"/>
</linearGradient>
<linearGradient id="paint58_linear" x1="541.226" y1="477.329" x2="545.575" y2="468.011" gradientUnits="userSpaceOnUse">
<stop stop-color="#2F0609"/>
<stop offset="1" stop-color="#3C070B"/>
</linearGradient>
<linearGradient id="paint59_linear" x1="540.319" y1="476.916" x2="544.632" y2="467.581" gradientUnits="userSpaceOnUse">
<stop stop-color="#2F0609"/>
<stop offset="1" stop-color="#3C070B"/>
</linearGradient>
<linearGradient id="paint60_linear" x1="537.499" y1="435.707" x2="541.847" y2="441.298" gradientUnits="userSpaceOnUse">
<stop stop-color="#780C13"/>
<stop offset="1" stop-color="#6C0B11"/>
</linearGradient>
<linearGradient id="paint61_linear" x1="537.002" y1="436.046" x2="541.207" y2="441.757" gradientUnits="userSpaceOnUse">
<stop stop-color="#780C13"/>
<stop offset="1" stop-color="#6C0B11"/>
</linearGradient>
<linearGradient id="paint62_linear" x1="29.3373" y1="78.9504" x2="38.3993" y2="99.6678" gradientUnits="userSpaceOnUse">
<stop stop-color="#7C101B"/>
<stop offset="1" stop-color="#20090F"/>
</linearGradient>
<linearGradient id="paint63_linear" x1="27.0769" y1="85.1072" x2="28.4714" y2="88.2944" gradientUnits="userSpaceOnUse">
<stop stop-color="#1C0C12"/>
<stop offset="1" stop-color="#6C131E"/>
</linearGradient>
<linearGradient id="paint64_linear" x1="38.9659" y1="81.0454" x2="39.7674" y2="82.1821" gradientUnits="userSpaceOnUse">
<stop stop-color="#190B12"/>
<stop offset="1" stop-color="#8C1421"/>
</linearGradient>
<linearGradient id="paint65_linear" x1="43.0625" y1="90.1693" x2="44.3087" y2="90.6032" gradientUnits="userSpaceOnUse">
<stop stop-color="#250C14"/>
<stop offset="1" stop-color="#530D16"/>
</linearGradient>
<linearGradient id="paint66_linear" x1="32.5907" y1="78.1638" x2="32.6712" y2="78.8667" gradientUnits="userSpaceOnUse">
<stop stop-color="#310D14"/>
<stop offset="1" stop-color="#8C1520"/>
</linearGradient>
<linearGradient id="paint67_linear" x1="34.6246" y1="94.0364" x2="35.5043" y2="98.6172" gradientUnits="userSpaceOnUse">
<stop stop-color="#160B12"/>
<stop offset="1" stop-color="#4B0F18"/>
</linearGradient>
<linearGradient id="paint68_linear" x1="23.4258" y1="94.9631" x2="22.3386" y2="90.8319" gradientUnits="userSpaceOnUse">
<stop stop-color="#4A0C14"/>
<stop offset="1" stop-color="#5B0D16"/>
</linearGradient>
<linearGradient id="paint69_linear" x1="23.8042" y1="94.8478" x2="22.6502" y2="90.7327" gradientUnits="userSpaceOnUse">
<stop stop-color="#4A0C14"/>
<stop offset="1" stop-color="#5B0D16"/>
</linearGradient>
<linearGradient id="paint70_linear" x1="36.0367" y1="100.399" x2="31.6994" y2="100.619" gradientUnits="userSpaceOnUse">
<stop stop-color="#21090F"/>
<stop offset="1" stop-color="#280910"/>
</linearGradient>
<linearGradient id="paint71_linear" x1="36.0552" y1="100.138" x2="31.7022" y2="100.137" gradientUnits="userSpaceOnUse">
<stop stop-color="#21090F"/>
<stop offset="1" stop-color="#280910"/>
</linearGradient>
<linearGradient id="paint72_linear" x1="43.429" y1="95.6153" x2="44.9509" y2="92.3538" gradientUnits="userSpaceOnUse">
<stop stop-color="#280910"/>
<stop offset="1" stop-color="#320A11"/>
</linearGradient>
<linearGradient id="paint73_linear" x1="43.1117" y1="95.4705" x2="44.621" y2="92.2031" gradientUnits="userSpaceOnUse">
<stop stop-color="#280910"/>
<stop offset="1" stop-color="#320A11"/>
</linearGradient>
<linearGradient id="paint74_linear" x1="42.1247" y1="81.0475" x2="43.6467" y2="83.0044" gradientUnits="userSpaceOnUse">
<stop stop-color="#5E0E17"/>
<stop offset="1" stop-color="#550D16"/>
</linearGradient>
<linearGradient id="paint75_linear" x1="41.951" y1="81.166" x2="43.4229" y2="83.1649" gradientUnits="userSpaceOnUse">
<stop stop-color="#5E0E17"/>
<stop offset="1" stop-color="#550D16"/>
</linearGradient>
</defs>
</svg>
