<svg width="411" height="721" viewBox="0 0 411 721" fill="none" xmlns="http://www.w3.org/2000/svg">
<g clip-path="url(#clip0)">
<path d="M0 10C0 4.47717 4.47715 0 10 0H401C406.523 0 411 4.47715 411 10V711C411 716.523 406.523 721 401 721H10C4.47716 721 0 716.523 0 711V10Z" fill="white"/>
<g filter="url(#filter0_d)">
<path d="M-294.302 -100.985C-294.659 -114.049 -282.595 -123.939 -269.855 -121.028L224.714 -8.01428C240.924 -4.31008 245.797 16.4078 232.938 26.9499L-247.796 421.064C-260.655 431.606 -280.015 422.764 -280.468 406.143L-294.302 -100.985Z" fill="#9147FF"/>
</g>
<path d="M-118.467 235.355C-121.457 220.23 -106.916 207.557 -92.329 212.576L723.906 493.409C738.456 498.415 742.141 517.276 730.544 527.383L81.649 1092.9C70.0522 1103 51.8557 1096.79 48.8728 1081.7L-118.467 235.355Z" fill="#9147FF" fill-opacity="0.97"/>
<path d="M373.481 -36.7437C384.983 -46.3526 402.575 -40.3734 405.83 -25.7492L466.49 246.809C469.88 262.038 455.296 275.114 440.522 270.092L165.504 176.62C150.73 171.599 147.147 152.349 159.124 142.343L373.481 -36.7437Z" fill="#9147FF" fill-opacity="0.44"/>
<path d="M388.492 30.2563C399.994 20.6474 417.586 26.6266 420.841 41.2508L481.502 313.809C484.891 329.038 470.307 342.114 455.534 337.092L180.515 243.62C165.742 238.599 162.159 219.349 174.135 209.343L388.492 30.2563Z" fill="#9147FF" fill-opacity="0.6"/>
</g>
<defs>
<filter id="filter0_d" x="-559.852" y="-343.758" width="831.286" height="800.525" filterUnits="userSpaceOnUse" color-interpolation-filters="sRGB">
<feFlood flood-opacity="0" result="BackgroundImageFix"/>
<feColorMatrix in="SourceAlpha" type="matrix" values="0 0 0 0 0 0 0 0 0 0 0 0 0 0 0 0 0 0 127 0" result="hardAlpha"/>
<feOffset dx="3" dy="3"/>
<feGaussianBlur stdDeviation="10"/>
<feColorMatrix type="matrix" values="0 0 0 0 0 0 0 0 0 0 0 0 0 0 0 0 0 0 0.15 0"/>
<feBlend mode="normal" in2="BackgroundImageFix" result="effect1_dropShadow"/>
<feBlend mode="normal" in="SourceGraphic" in2="effect1_dropShadow" result="shape"/>
</filter>
<clipPath id="clip0">
<path d="M0 10C0 4.47717 4.47715 0 10 0H401C406.523 0 411 4.47715 411 10V711C411 716.523 406.523 721 401 721H10C4.47716 721 0 716.523 0 711V10Z" fill="white"/>
</clipPath>
</defs>
</svg>
