<svg width="320" height="350" viewBox="0 0 320 350" fill="none" xmlns="http://www.w3.org/2000/svg">
<path fill-rule="evenodd" clip-rule="evenodd" d="M242.211 125.195C272.823 163.054 306.994 198.52 303.693 230.49C300.457 262.396 259.62 290.807 220.531 301.551C181.377 312.229 143.97 305.239 105.98 290.354C68.0558 275.534 29.5487 252.818 19.6469 220.459C9.80978 188.165 28.5779 146.163 56.3419 108.95C84.1058 71.8024 120.865 39.3788 152.707 43.3266C184.612 47.2097 211.6 87.3994 242.211 125.195Z" fill="#F8F8F8"/>
<circle cx="120.997" cy="64.437" r="3" fill="#39BEE8"/>
<circle cx="103.997" cy="293.437" r="5" fill="#FF9F67"/>
<circle cx="246.997" cy="251.437" r="5" fill="#B3DB64"/>
<path fill-rule="evenodd" clip-rule="evenodd" d="M267.454 193.875C269.318 196.759 270.92 199.78 272.262 202.935C272.424 203.317 272.428 203.699 272.273 204.083C272.118 204.467 271.85 204.741 271.469 204.903C271.466 204.904 271.463 204.905 271.46 204.906C271.457 204.908 271.454 204.909 271.451 204.91C271.071 205.066 270.692 205.066 270.312 204.91C269.932 204.754 269.662 204.487 269.502 204.109C268.277 201.23 266.824 198.469 265.142 195.828C265.073 195.719 265.004 195.611 264.934 195.503C264.709 195.155 264.64 194.779 264.727 194.374C264.814 193.969 265.032 193.654 265.38 193.429C265.728 193.204 266.104 193.135 266.509 193.222C266.914 193.31 267.229 193.527 267.454 193.875ZM275.473 224.407C275.063 224.424 274.706 224.295 274.402 224.02C274.097 223.744 273.934 223.402 273.911 222.992C273.728 219.744 273.267 216.534 272.526 213.364C272.433 212.964 272.494 212.589 272.708 212.239C272.922 211.889 273.229 211.665 273.627 211.566C273.63 211.566 273.633 211.565 273.636 211.564C273.64 211.563 273.643 211.563 273.646 211.562C274.049 211.468 274.427 211.53 274.779 211.748C275.13 211.967 275.354 212.278 275.448 212.681C276.228 216.021 276.714 219.402 276.906 222.824C276.929 223.237 276.803 223.599 276.527 223.907C276.251 224.216 275.906 224.382 275.492 224.406C275.489 224.406 275.486 224.406 275.483 224.406C275.479 224.406 275.476 224.406 275.473 224.406V224.407ZM273.616 232.707C273.664 232.299 273.848 231.967 274.168 231.71C274.488 231.454 274.852 231.347 275.261 231.389C275.264 231.389 275.267 231.39 275.27 231.39C275.273 231.39 275.277 231.391 275.28 231.391C275.691 231.439 276.025 231.625 276.282 231.95C276.539 232.275 276.644 232.643 276.596 233.055C276.419 234.567 276.185 236.074 275.893 237.576C275.525 239.469 275.069 241.336 274.525 243.175C274.407 243.572 274.167 243.869 273.803 244.067C273.439 244.265 273.058 244.305 272.661 244.188C272.658 244.187 272.655 244.186 272.652 244.185C272.649 244.184 272.646 244.183 272.643 244.182C272.25 244.061 271.958 243.819 271.764 243.457C271.57 243.095 271.532 242.717 271.648 242.324C272.165 240.576 272.598 238.803 272.948 237.003C273.226 235.576 273.448 234.144 273.616 232.707ZM268.102 251.369C268.284 251.001 268.569 250.75 268.957 250.616C269.345 250.483 269.724 250.505 270.094 250.682C270.097 250.683 270.1 250.685 270.103 250.686C270.106 250.688 270.109 250.689 270.112 250.691C270.483 250.875 270.735 251.163 270.867 251.555C271 251.948 270.974 252.33 270.79 252.701C269.266 255.775 267.487 258.697 265.453 261.465C265.208 261.799 264.88 261.997 264.471 262.06C264.062 262.122 263.69 262.031 263.356 261.786C263.354 261.784 263.351 261.782 263.348 261.78C263.346 261.778 263.343 261.776 263.341 261.774C263.013 261.527 262.82 261.2 262.76 260.794C262.701 260.388 262.793 260.019 263.036 259.689C264.967 257.061 266.655 254.287 268.102 251.369ZM256.618 267.006C256.914 266.722 257.267 266.583 257.678 266.589C258.088 266.594 258.437 266.744 258.725 267.036C258.728 267.038 258.73 267.041 258.732 267.043C258.734 267.045 258.737 267.048 258.739 267.05C259.026 267.349 259.165 267.705 259.156 268.119C259.147 268.534 258.994 268.884 258.695 269.171C256.223 271.543 253.564 273.688 250.72 275.606C250.377 275.838 250.002 275.914 249.595 275.835C249.189 275.756 248.87 275.545 248.638 275.201C248.636 275.199 248.634 275.196 248.633 275.193C248.631 275.191 248.629 275.188 248.627 275.185C248.402 274.842 248.33 274.469 248.411 274.067C248.492 273.665 248.703 273.349 249.043 273.119C251.744 271.297 254.27 269.259 256.618 267.006ZM202.415 280.902C202.799 281.04 203.079 281.292 203.257 281.659C203.435 282.025 203.46 282.402 203.331 282.789C203.329 282.794 203.327 282.799 203.325 282.805C203.323 282.81 203.321 282.816 203.319 282.821C203.179 283.211 202.922 283.494 202.547 283.671C202.172 283.847 201.79 283.865 201.4 283.725C198.044 282.518 195.02 280.827 192.327 278.651C192.005 278.391 191.822 278.054 191.778 277.642C191.734 277.231 191.843 276.864 192.103 276.541C192.107 276.536 192.111 276.531 192.115 276.527C192.119 276.522 192.123 276.517 192.127 276.512C192.391 276.202 192.725 276.028 193.13 275.991C193.535 275.953 193.896 276.062 194.212 276.318C196.643 278.281 199.377 279.81 202.415 280.902ZM240.536 277.852C240.911 277.684 241.29 277.671 241.675 277.815C242.059 277.958 242.338 278.216 242.511 278.588C242.513 278.591 242.514 278.594 242.515 278.597C242.517 278.6 242.518 278.603 242.519 278.606C242.689 278.984 242.7 279.366 242.553 279.753C242.406 280.14 242.143 280.419 241.765 280.589C240.178 281.301 238.564 281.943 236.922 282.514C236.909 282.518 236.897 282.522 236.884 282.526C236.871 282.53 236.858 282.534 236.845 282.538C235.102 283.041 233.397 283.488 231.729 283.881C231.326 283.975 230.948 283.914 230.596 283.696C230.244 283.478 230.021 283.167 229.926 282.764L229.923 282.752C229.832 282.35 229.896 281.975 230.114 281.626C230.332 281.276 230.642 281.054 231.043 280.96C232.649 280.582 234.293 280.151 235.975 279.667C237.521 279.128 239.041 278.523 240.536 277.852ZM221.617 282.614C222.026 282.569 222.391 282.675 222.713 282.93C223.035 283.186 223.221 283.517 223.27 283.925C223.27 283.928 223.27 283.931 223.271 283.934C223.271 283.936 223.271 283.939 223.272 283.942C223.317 284.354 223.209 284.721 222.95 285.044C222.691 285.367 222.355 285.551 221.944 285.596C218.265 285.998 214.806 286.075 211.565 285.825C211.152 285.794 210.811 285.62 210.541 285.306C210.272 284.991 210.153 284.628 210.185 284.215C210.185 284.21 210.185 284.206 210.186 284.202C210.186 284.198 210.187 284.193 210.187 284.189C210.225 283.782 210.401 283.446 210.714 283.183C211.027 282.919 211.387 282.803 211.795 282.834C214.85 283.069 218.124 282.996 221.617 282.614Z" fill="#0D0938"/>
<rect width="18" height="4" rx="2" transform="matrix(-0.656059 -0.75471 -0.75471 0.656059 124.428 116.243)" fill="#0D0938"/>
<rect width="18" height="4" rx="2" transform="matrix(-0.358368 -0.933581 -0.933581 0.358368 134.012 111.154)" fill="#0D0938"/>
<rect x="116.803" y="128.264" width="18" height="4" rx="2" transform="rotate(-160 116.803 128.264)" fill="#0D0938"/>
<rect x="173.395" y="63.4375" width="109" height="144" rx="8" transform="rotate(13 173.395 63.4375)" fill="#F2AC57"/>
<path fill-rule="evenodd" clip-rule="evenodd" d="M261.802 91.1573L171.183 70.2364C169.031 69.7395 167.018 70.0763 165.145 71.2468C163.272 72.4174 162.087 74.0787 161.59 76.231L132.796 200.952C132.299 203.105 132.636 205.117 133.806 206.991C134.977 208.864 136.638 210.049 138.79 210.546L229.409 231.467C231.561 231.963 233.574 231.627 235.447 230.456C237.32 229.286 238.505 227.624 239.002 225.472L267.796 100.751C268.293 98.5984 267.956 96.5857 266.786 94.7124C265.615 92.8392 263.954 91.6542 261.802 91.1573ZM166.735 73.7911C167.906 73.0596 169.164 72.8491 170.509 73.1596L261.127 94.0805C262.472 94.391 263.51 95.1316 264.242 96.3023C264.974 97.473 265.184 98.7309 264.873 100.076L236.079 224.797C235.769 226.142 235.028 227.181 233.857 227.912C232.687 228.644 231.429 228.854 230.084 228.544L139.466 207.623C138.12 207.312 137.082 206.572 136.351 205.401C135.619 204.23 135.409 202.972 135.719 201.627L164.513 76.906C164.824 75.5609 165.564 74.5226 166.735 73.7911Z" fill="#0D0938"/>
<rect x="175.219" y="88.437" width="60" height="3" rx="1.5" transform="rotate(13 175.219 88.437)" fill="#0D0938"/>
<rect x="170.945" y="102.437" width="80" height="3" rx="1.5" transform="rotate(13 170.945 102.437)" fill="#0D0938"/>
<rect x="167.944" y="121.437" width="80" height="3" rx="1.5" transform="rotate(13 167.944 121.437)" fill="#0D0938"/>
<rect x="164.945" y="139.437" width="80" height="3" rx="1.5" transform="rotate(13 164.945 139.437)" fill="#0D0938"/>
<rect x="158.945" y="158.437" width="80" height="3" rx="1.5" transform="rotate(13 158.945 158.437)" fill="#0D0938"/>
<path d="M74.9971 156.437H204.997C209.415 156.437 212.997 160.019 212.997 164.437V246.437C212.997 250.855 209.415 254.437 204.997 254.437H82.9971C78.5788 254.437 74.9971 250.855 74.9971 246.437V156.437Z" fill="#F8F8F8"/>
<rect x="57.9971" y="171.437" width="138" height="98" rx="8" fill="#9147FF"/>
<path fill-rule="evenodd" clip-rule="evenodd" d="M66.9971 163.437V253.438C66.9971 255.647 67.778 257.532 69.3399 259.094C70.9018 260.656 72.7872 261.437 74.9961 261.437H196.998C199.207 261.437 201.092 260.656 202.654 259.094C204.216 257.532 204.997 255.647 204.997 253.438V171.436C204.997 169.227 204.216 167.342 202.654 165.78C201.092 164.218 199.207 163.437 196.998 163.437H66.9971ZM69.9971 166.437L69.9971 253.438C69.9971 254.818 70.4851 255.997 71.4612 256.973C72.4374 257.949 73.6156 258.437 74.9961 258.437H196.998C198.378 258.437 199.557 257.949 200.533 256.973C201.509 255.997 201.997 254.818 201.997 253.438V171.436C201.997 170.056 201.509 168.877 200.533 167.901C199.557 166.925 198.378 166.437 196.998 166.437H69.9971Z" fill="#0D0938"/>
<path fill-rule="evenodd" clip-rule="evenodd" d="M111.998 150.437H74.9961C72.7872 150.437 70.9018 151.218 69.3399 152.78C67.778 154.342 66.9971 156.227 66.9971 158.436V166.437H119.997V158.436C119.997 156.227 119.216 154.342 117.654 152.78C116.092 151.218 114.207 150.437 111.998 150.437ZM116.997 163.437V158.436C116.997 157.056 116.509 155.877 115.533 154.901C114.557 153.925 113.379 153.437 111.998 153.437H74.9961C73.6156 153.437 72.4374 153.925 71.4612 154.901C70.4851 155.877 69.9971 157.056 69.9971 158.436V163.437H116.997Z" fill="#0D0938"/>
<rect x="153.997" y="242.437" width="50" height="3" rx="1.5" fill="#0D0938"/>
<circle cx="81.9971" cy="158.437" r="2" fill="#0D0938"/>
<circle cx="91.9971" cy="158.437" r="2" fill="#0D0938"/>
<circle cx="101.997" cy="158.437" r="2" fill="#0D0938"/>
<path fill-rule="evenodd" clip-rule="evenodd" d="M159.997 206.937C159.997 221.02 148.58 232.437 134.497 232.437C120.414 232.437 108.997 221.02 108.997 206.937C108.997 192.854 120.414 181.437 134.497 181.437C148.58 181.437 159.997 192.854 159.997 206.937ZM150.407 222.847C146.014 227.24 140.71 229.437 134.497 229.437C128.284 229.437 122.981 227.24 118.587 222.847C114.194 218.454 111.997 213.15 111.997 206.937C111.997 200.724 114.194 195.421 118.587 191.027C122.981 186.634 128.284 184.437 134.497 184.437C140.71 184.437 146.014 186.634 150.407 191.027C154.8 195.421 156.997 200.724 156.997 206.937C156.997 213.15 154.8 218.454 150.407 222.847Z" fill="#0D0938"/>
<rect x="144.624" y="195.622" width="3" height="32" rx="1.5" transform="rotate(45 144.624 195.622)" fill="#0D0938"/>
<rect width="3" height="32" rx="1.5" transform="matrix(-0.707107 0.707107 0.707107 0.707107 124.117 195.622)" fill="#0D0938"/>
</svg>
