<svg width="320" height="350" viewBox="0 0 320 350" fill="none" xmlns="http://www.w3.org/2000/svg">
<path fill-rule="evenodd" clip-rule="evenodd" d="M108.803 93.7036C146.663 63.0921 182.128 28.9211 214.099 32.2217C246.005 35.4576 274.416 76.2945 285.159 115.384C295.837 154.538 288.848 191.945 273.963 229.934C259.142 267.859 236.426 306.366 204.068 316.268C171.773 326.105 129.772 307.337 92.5588 279.573C55.4108 251.809 22.9872 215.049 26.935 183.208C30.8181 151.302 71.0078 124.315 108.803 93.7036Z" fill="#F8F8F8"/>
<circle cx="50" cy="275.045" r="3" fill="#FF9F67"/>
<circle cx="171" cy="290.045" r="5" fill="#39BEE8"/>
<circle cx="155" cy="131.045" r="5" fill="#B3DB64"/>
<path fill-rule="evenodd" clip-rule="evenodd" d="M74.5059 186.269C74.4791 186.316 74.4521 186.364 74.4248 186.412C72.8582 189.202 71.5359 192.106 70.4582 195.126C70.3203 195.513 70.0664 195.795 69.6967 195.974C69.3269 196.152 68.9479 196.174 68.5596 196.041C68.5565 196.04 68.5535 196.039 68.5504 196.038C68.5474 196.037 68.5444 196.036 68.5413 196.035C68.354 195.968 68.1866 195.868 68.0391 195.735C67.8916 195.601 67.7752 195.444 67.69 195.265C67.6048 195.085 67.5573 194.896 67.5473 194.697C67.5374 194.498 67.5659 194.305 67.6327 194.118C68.7869 190.884 70.2075 187.775 71.8946 184.792C71.9925 184.619 72.1198 184.471 72.2765 184.348C72.4333 184.226 72.6075 184.138 72.7991 184.085C72.9908 184.032 73.1854 184.017 73.3828 184.041C73.5802 184.066 73.7655 184.127 73.9387 184.225C74.2992 184.428 74.5349 184.73 74.6456 185.129C74.7564 185.528 74.7098 185.908 74.5059 186.269V186.269ZM65.6488 215.744L65.6682 215.744C66.0786 215.739 66.4279 215.59 66.7162 215.298C67.0044 215.006 67.1485 214.654 67.1484 214.244C67.1477 210.989 67.4257 207.755 67.9824 204.542C68.0525 204.137 67.9704 203.766 67.7361 203.429C67.5018 203.092 67.1829 202.886 66.7794 202.811C66.7762 202.81 66.7731 202.81 66.7699 202.809C66.7668 202.809 66.7636 202.808 66.7605 202.808C66.5645 202.774 66.3694 202.778 66.1754 202.822C65.9813 202.866 65.803 202.945 65.6404 203.059C65.4778 203.174 65.3433 203.315 65.2369 203.483C65.1305 203.651 65.0604 203.834 65.0264 204.03C64.4403 207.413 64.1476 210.818 64.1484 214.245C64.1485 214.444 64.1866 214.635 64.2628 214.819C64.3389 215.002 64.4473 215.165 64.588 215.305C64.7287 215.446 64.8909 215.554 65.0747 215.63C65.2585 215.706 65.4499 215.744 65.6488 215.744V215.744ZM67.3737 222.964C67.2137 222.852 67.0385 222.774 66.8479 222.73C66.6573 222.686 66.4656 222.68 66.2725 222.711C66.2693 222.712 66.2661 222.712 66.2629 222.713C66.2597 222.713 66.2565 222.714 66.2533 222.714C65.8452 222.786 65.5222 222.991 65.2841 223.33C65.046 223.669 64.9626 224.042 65.0339 224.45C65.624 227.826 66.5012 231.127 67.6656 234.352C67.8062 234.742 68.064 235.025 68.4389 235.201C68.8139 235.377 69.1962 235.394 69.5858 235.254C69.5888 235.253 69.5919 235.252 69.5949 235.251C69.5979 235.249 69.601 235.248 69.604 235.247C69.787 235.178 69.9504 235.078 70.0941 234.945C70.2377 234.812 70.3511 234.657 70.4342 234.48C70.5188 234.3 70.5656 234.111 70.5748 233.912C70.584 233.714 70.5549 233.521 70.4873 233.334C69.382 230.272 68.5493 227.138 67.9891 223.934C67.9549 223.738 67.8845 223.556 67.7778 223.388C67.6712 223.22 67.5365 223.079 67.3737 222.964V222.964ZM73.6641 241.474C73.4755 241.422 73.284 241.408 73.0898 241.431C72.8956 241.455 72.7129 241.514 72.5418 241.608C72.539 241.61 72.5362 241.611 72.5334 241.613C72.5306 241.614 72.5279 241.616 72.5251 241.617C72.1653 241.823 71.9306 242.125 71.8212 242.524C71.7118 242.924 71.7597 243.304 71.9648 243.663C72.1943 244.066 72.4286 244.466 72.6679 244.864C74.2036 247.42 75.9123 249.84 77.7941 252.124C78.0575 252.444 78.3954 252.624 78.8076 252.664C79.2199 252.704 79.5859 252.592 79.9056 252.328C79.9081 252.326 79.9106 252.324 79.9131 252.322C79.9156 252.32 79.918 252.318 79.9205 252.316C80.0698 252.19 80.1898 252.04 80.2806 251.867C80.3713 251.693 80.4261 251.509 80.4449 251.315C80.464 251.117 80.4445 250.923 80.3864 250.732C80.3283 250.542 80.236 250.37 80.1095 250.217C78.322 248.047 76.6987 245.748 75.2394 243.319C75.012 242.941 74.7893 242.56 74.5711 242.178C74.4726 242.005 74.3448 241.858 74.1876 241.736C74.0305 241.614 73.856 241.526 73.6641 241.474V241.474ZM158.61 260.625C158.328 260.331 158.189 259.981 158.191 259.574C158.194 259.167 158.339 258.819 158.625 258.53C160.774 256.359 162.517 253.901 163.856 251.156C163.875 251.118 163.895 251.08 163.917 251.044C163.939 251.007 163.962 250.972 163.987 250.937C164.201 250.641 164.485 250.448 164.839 250.359C165.193 250.27 165.534 250.305 165.862 250.466C166.234 250.647 166.488 250.934 166.623 251.325C166.758 251.717 166.734 252.099 166.553 252.471C165.069 255.512 163.138 258.235 160.758 260.64C160.466 260.935 160.113 261.083 159.699 261.085C159.285 261.087 158.931 260.942 158.636 260.651C158.632 260.647 158.627 260.642 158.623 260.638C158.619 260.634 158.615 260.629 158.61 260.625V260.625ZM86.9304 257.171C86.6187 256.904 86.2582 256.785 85.8488 256.814C85.4394 256.843 85.0993 257.011 84.8283 257.32C84.8261 257.322 84.824 257.324 84.8218 257.327C84.8197 257.329 84.8176 257.332 84.8154 257.334C84.686 257.485 84.5905 257.655 84.5288 257.844C84.467 258.034 84.4438 258.227 84.4592 258.426C84.4745 258.624 84.5272 258.812 84.6173 258.989C84.7073 259.166 84.8279 259.32 84.979 259.449C87.5808 261.678 90.3579 263.667 93.3102 265.417C93.6665 265.628 94.0453 265.682 94.4466 265.58C94.8479 265.477 95.1542 265.247 95.3654 264.891C95.367 264.888 95.3687 264.886 95.3703 264.883C95.3719 264.88 95.3735 264.877 95.3751 264.874C95.4726 264.705 95.5346 264.523 95.5612 264.329C95.5877 264.136 95.5767 263.944 95.5283 263.755C95.479 263.562 95.3947 263.386 95.2754 263.227C95.1562 263.068 95.011 262.937 94.8399 262.836C92.0369 261.175 89.4004 259.286 86.9304 257.171V257.171ZM142.131 267.792C141.738 267.911 141.443 268.15 141.246 268.51C141.05 268.87 141.008 269.248 141.121 269.643C141.122 269.646 141.123 269.649 141.124 269.652C141.125 269.655 141.125 269.658 141.126 269.661C141.184 269.851 141.275 270.023 141.401 270.177C141.527 270.332 141.677 270.456 141.852 270.55C142.027 270.644 142.214 270.701 142.412 270.721C142.61 270.741 142.804 270.723 142.994 270.666C146.463 269.624 149.601 268.341 152.41 266.818C152.585 266.723 152.735 266.598 152.86 266.444C152.985 266.289 153.076 266.116 153.133 265.926C153.189 265.735 153.207 265.541 153.186 265.343C153.166 265.145 153.108 264.959 153.013 264.784C153.011 264.78 153.008 264.776 153.006 264.771C153.004 264.767 153.001 264.763 152.999 264.759C152.797 264.403 152.5 264.17 152.107 264.057C151.715 263.945 151.339 263.986 150.979 264.181C148.352 265.606 145.402 266.81 142.131 267.792V267.792ZM103.606 267.06C103.223 266.914 102.843 266.924 102.468 267.09C102.092 267.256 101.829 267.529 101.678 267.911C101.677 267.914 101.676 267.917 101.675 267.92C101.674 267.923 101.672 267.926 101.671 267.929C101.524 268.316 101.536 268.699 101.705 269.077C101.875 269.455 102.154 269.717 102.541 269.864C105.745 271.082 109.031 272.018 112.398 272.672C112.805 272.751 113.18 272.674 113.523 272.443C113.867 272.211 114.078 271.892 114.157 271.485C114.157 271.482 114.158 271.479 114.158 271.476C114.159 271.473 114.16 271.47 114.16 271.466C114.233 271.063 114.154 270.691 113.922 270.352C113.69 270.014 113.373 269.805 112.97 269.727C109.772 269.106 106.651 268.217 103.606 267.06V267.06ZM134.375 271.126C134.309 270.72 134.109 270.396 133.777 270.154C133.444 269.912 133.074 269.822 132.667 269.884C130.111 270.276 127.413 270.57 124.575 270.765C123.934 270.773 123.292 270.771 122.651 270.758C122.24 270.75 121.886 270.887 121.588 271.169C121.29 271.452 121.135 271.798 121.121 272.208C121.121 272.211 121.121 272.215 121.121 272.218C121.121 272.221 121.121 272.224 121.12 272.228C121.112 272.642 121.251 272.998 121.538 273.297C121.825 273.596 122.176 273.749 122.59 273.758C123.279 273.772 123.969 273.774 124.658 273.764C124.672 273.763 124.685 273.763 124.699 273.763C124.712 273.762 124.726 273.761 124.739 273.76C127.676 273.56 130.47 273.256 133.122 272.849C133.318 272.819 133.502 272.753 133.672 272.649C133.842 272.546 133.986 272.415 134.103 272.254C134.221 272.094 134.304 271.917 134.351 271.724C134.398 271.531 134.407 271.336 134.377 271.139C134.377 271.137 134.376 271.135 134.376 271.133C134.376 271.131 134.375 271.128 134.375 271.126V271.126Z" fill="#0D0938"/>
<rect width="18" height="4" rx="2" transform="matrix(0.0871557 -0.996195 -0.996195 -0.0871557 177.147 109.843)" fill="#0D0938"/>
<rect width="18" height="4" rx="2" transform="matrix(0.422618 -0.906308 -0.906308 -0.422618 187.467 113.204)" fill="#0D0938"/>
<rect x="163.205" y="112.708" width="18" height="4" rx="2" transform="rotate(-114 163.205 112.708)" fill="#0D0938"/>
<path fill-rule="evenodd" clip-rule="evenodd" d="M202.389 165.145L210.589 152.005C210.589 152.005 214.786 145.954 221.655 139.776C224.608 137.536 227.855 135.607 231.305 134.051C256.278 124.03 284.457 135.655 294.579 159.67C302.38 178.573 299.374 197.84 288.647 213.278C283.05 222.448 275.077 229.597 264.867 236.332C251.432 245.149 232.404 253.733 207.641 262.756L176.454 274.027L177.058 239.433L194.527 222.563C196.116 221.029 196.16 218.497 194.625 216.907L187.071 209.084C185.307 207.258 185.669 204.272 187.818 202.92L207.149 190.757C208.771 189.736 209.441 187.708 208.747 185.922L202.055 168.713C201.597 167.537 201.721 166.215 202.389 165.145Z" fill="#F2AC57"/>
<path fill-rule="evenodd" clip-rule="evenodd" d="M275.647 211.278C286.374 195.84 289.38 176.574 281.58 157.67C271.457 133.655 243.278 122.03 218.305 132.051C214.855 133.608 211.608 135.536 208.655 137.776C201.786 143.954 197.589 150.005 197.589 150.005L189.389 163.146C189.055 163.681 188.859 164.262 188.8 164.89C188.741 165.517 188.826 166.125 189.054 166.712L195.747 183.923C196.094 184.816 196.117 185.717 195.817 186.627C195.516 187.537 194.96 188.247 194.15 188.757L174.817 200.921C174.307 201.242 173.891 201.657 173.569 202.165C173.247 202.674 173.049 203.227 172.977 203.825C172.904 204.423 172.964 205.007 173.155 205.578C173.347 206.149 173.652 206.651 174.07 207.084L181.626 214.908C181.994 215.29 182.276 215.727 182.47 216.221C182.664 216.714 182.757 217.226 182.748 217.756C182.739 218.286 182.628 218.795 182.417 219.281C182.205 219.767 181.909 220.195 181.527 220.563L164.058 237.433L163.51 268.817L163.454 272.027L166.474 270.936L194.641 260.756C219.404 251.734 238.432 243.149 251.867 234.333C262.077 227.597 270.05 220.449 275.647 211.278V211.278ZM166.53 267.726L193.614 257.937C218.818 248.754 237.685 240.052 250.215 231.829C260.678 224.927 268.301 217.555 273.086 209.715L273.133 209.639L273.183 209.566C278.395 202.066 281.528 194.014 282.584 185.409C283.683 176.446 282.427 167.588 278.815 158.835C274.063 147.561 265.918 139.575 254.38 134.876C242.8 130.16 231.167 130.138 219.481 134.812C216.287 136.258 213.316 138.018 210.567 140.091C206.227 144.005 202.736 147.86 200.095 151.656L191.934 164.734C191.758 165.017 191.73 165.314 191.851 165.625L198.543 182.836C199.939 186.425 199.007 189.245 195.747 191.296L176.415 203.46C176.146 203.629 175.993 203.871 175.955 204.186C175.917 204.501 176.008 204.772 176.228 205L183.784 212.824C185.127 214.215 185.781 215.876 185.747 217.809C185.714 219.741 185.002 221.378 183.611 222.721L167.036 238.728L166.53 267.726V267.726Z" fill="#0D0938"/>
<path fill-rule="evenodd" clip-rule="evenodd" d="M116.846 116.574L108.876 103.292C108.876 103.292 104.786 97.1687 98.0257 90.8721C95.112 88.5807 91.899 86.5961 88.4768 84.9792C63.6829 74.5244 35.305 85.6558 24.7648 109.49C16.6352 128.255 19.3045 147.571 29.761 163.193C35.1969 172.46 43.0436 179.747 53.1347 186.66C66.4139 195.709 85.2894 204.625 109.891 214.078L140.876 225.891V191.292L123.705 174.12C122.143 172.558 122.143 170.026 123.705 168.464L131.395 160.774C133.19 158.978 132.88 155.987 130.755 154.597L111.64 142.099C110.035 141.05 109.401 139.01 110.127 137.236L117.118 120.146C117.595 118.979 117.494 117.655 116.846 116.574Z" fill="#9147FF"/>
<path fill-rule="evenodd" clip-rule="evenodd" d="M44.7611 163.193C34.3045 147.571 31.6353 128.255 39.7649 109.49C50.305 85.6558 78.6829 74.5244 103.477 84.9792C106.899 86.596 110.112 88.5807 113.026 90.8721C119.786 97.1687 123.877 103.292 123.877 103.292L131.846 116.574C132.17 117.115 132.356 117.699 132.404 118.328C132.452 118.956 132.357 119.562 132.118 120.146L125.126 137.237C124.763 138.124 124.724 139.025 125.009 139.939C125.294 140.854 125.837 141.574 126.639 142.098L145.756 154.598C146.26 154.928 146.669 155.349 146.983 155.864C147.296 156.378 147.484 156.934 147.546 157.533C147.608 158.132 147.538 158.715 147.337 159.283C147.135 159.85 146.821 160.347 146.396 160.773L138.704 168.464C137.923 169.245 137.533 170.188 137.533 171.292C137.533 172.396 137.923 173.339 138.704 174.12L155.877 191.292V225.891L152.877 224.748L124.891 214.078C100.289 204.625 81.4139 195.709 68.1347 186.66C58.0437 179.747 50.197 172.46 44.7611 163.193V163.193ZM152.877 221.537L125.967 211.277C100.928 201.656 82.2161 192.625 69.8303 184.185C59.49 177.101 51.9962 169.598 47.3489 161.675L47.3038 161.599L47.2543 161.525C42.1745 153.935 39.1821 145.829 38.2769 137.207C37.3341 128.226 38.7447 119.392 42.5087 110.703C47.457 99.5139 55.7404 91.6708 67.3587 87.174C79.0194 82.6609 90.6508 82.8425 102.253 87.7189C105.421 89.2209 108.362 91.0324 111.074 93.1535C115.345 97.1421 118.768 101.057 121.342 104.899L129.274 118.118C129.445 118.404 129.468 118.701 129.342 119.01L122.35 136.101C120.892 139.666 121.774 142.502 124.997 144.609L144.115 157.109C144.38 157.282 144.529 157.527 144.562 157.842C144.594 158.158 144.499 158.427 144.274 158.651L136.583 166.343C135.216 167.71 134.533 169.359 134.533 171.292C134.533 173.225 135.216 174.874 136.583 176.241L152.877 192.535V221.537V221.537Z" fill="#9147FF"/>
</svg>
