<svg width="83" height="79" viewBox="0 0 83 79" fill="none" xmlns="http://www.w3.org/2000/svg">
<rect width="83" height="79" rx="4" fill="#FEFEFE"/>
<rect x="12.1154" y="13.32" width="57.7308" height="12.32" rx="2" fill="#44318D"/>
<path d="M36.2876 27.4943C36.364 26.449 37.2342 25.64 38.2823 25.64H43.6793C44.7273 25.64 45.5976 26.449 45.674 27.4943L48.4201 65.0743C48.5048 66.2332 47.5874 67.22 46.4254 67.22H45.5385H36.4231H35.5361C34.3741 67.22 33.4567 66.2331 33.5414 65.0743L36.2876 27.4943Z" fill="#44318D"/>
<ellipse cx="60.7308" cy="19.48" rx="3.03846" ry="3.08" fill="white"/>
<path d="M62.3717 40.5199L69.3659 42.308L74.9879 52.8676L65.6292 57.9874L60.0734 47.552L62.3717 40.5199Z" fill="#FEA503"/>
<path d="M65.5124 43.1766C65.9109 43.925 65.6354 44.8592 64.897 45.2632C64.1586 45.6671 63.237 45.3878 62.8385 44.6394C62.44 43.8909 62.7156 42.9567 63.4539 42.5527C64.1923 42.1488 65.1139 42.4281 65.5124 43.1766Z" fill="white"/>
<path d="M60.5 19.5L64.7575 24.4584C69.5873 30.0834 69.5417 38.4242 64.6504 44.0355V44.0355" stroke="#9E9E9E" stroke-width="0.5"/>
</svg>
